<svg id="Capa_1" data-name="Capa 1" xmlns="http://www.w3.org/2000/svg" xmlns:xlink="http://www.w3.org/1999/xlink" viewBox="0 0 1143 626">
  <defs>
    <style>
      .cls-1, .cls-2, .cls-3, .cls-5 {
        font-size: 15px;
        font-family: Arial-BoldMT, Arial;
        font-weight: 700;
      }

      .cls-2, .cls-5 {
        fill: #c69c6d;
      }

      .cls-3, .cls-5 {
        letter-spacing: -0.06em;
      }

      .cls-4 {
        letter-spacing: 0em;
      }
    </style>
  </defs>
  <image width="1143" height="626" xlink:href="masterplan1.png"/>
  <g>
    <polygon id="_1" data-name="1" points="587.7 434.7 625.9 421.5 640.7 451.3 636.6 453.8 632.1 457 625.7 462.8 620.6 468.8 617 474.6 614.5 480.3 612.6 488.5 587.7 434.7"/>
    <polygon id="_2" data-name="2" points="563 444.4 584.9 435.7 610.7 491.6 590.1 499.5 563 444.4"/>
    <polygon id="_3" data-name="3" points="538.2 454.5 560.2 445.5 587.3 500.5 564.3 509.4 538.2 454.5"/>
    <polygon id="_4" data-name="4" points="512.4 465.2 535.4 455.6 561.5 510.6 539 519.7 512.4 465.2"/>
    <polygon id="_5" data-name="5" points="488.8 475.1 509.7 466.3 536.5 520.8 516 529.3 488.8 475.1"/>
    <polygon id="_6" data-name="6" points="464.1 485.5 486.1 476.3 513.3 530.7 490.6 540.6 464.1 485.5"/>
    <polygon id="_7" data-name="7" points="439.7 496.1 461.5 486.8 487.6 541.7 466.9 551.1 439.7 496.1"/>
    <polygon id="_8" data-name="8" points="415.3 506.7 437 497.3 464.1 552.4 441.2 563 415.3 506.7"/>
    <polygon id="_9" data-name="9" points="390.6 517.3 412.6 507.8 438.6 564.2 417.5 574.2 390.6 517.3"/>
    <polygon id="_10" data-name="10" points="368.8 521.9 381.9 521.2 388.1 518.4 415.2 575.8 370.1 579.2 368.8 521.9"/>
    <polygon id="_11" data-name="11" points="342.1 524 365.9 522.4 367.4 579.2 343.3 580.5 342.1 524"/>
    <polygon id="_12" data-name="12" points="315.1 525.8 339.1 524.2 340.2 580.5 316.4 581.8 315.1 525.8"/>
    <polygon id="_13" data-name="13" points="285.7 527.9 312.2 526.3 313.4 581.8 289.4 583.3 285.7 527.9"/>
    <polygon id="_14" data-name="14" points="259 530 282.7 528.3 286.5 583.3 262.7 585 259 530"/>
    <polygon id="_15" data-name="15" points="232.4 531.8 256 530.4 259.7 585 235.2 586.7 232.4 531.8"/>
    <polygon id="_16" data-name="16" points="200.5 534.4 229.7 532.2 232.7 586.4 202.3 588.6 200.5 534.4"/>
    <polygon id="_17" data-name="17" points="198.7 498.3 252.1 496.2 253.1 523.8 200 528 198.7 498.3"/>
    <polygon id="_18" data-name="18" points="197.4 471.8 250.6 468.7 251.6 493.2 198.7 495.5 197.4 471.8"/>
    <polygon id="_19" data-name="19" points="196.6 447 249.7 444 250.5 465.9 197.4 468.7 196.6 447"/>
    <polygon id="_20" data-name="20" points="195.6 418.7 248.7 415.6 249.5 441.2 196.5 444.4 195.6 418.7"/>
    <polygon id="_21" data-name="21" points="194.3 391.4 247.6 388.3 248.6 412.5 194.9 415.6 194.3 391.4"/>
    <polygon id="_22" data-name="22" points="193.3 365.3 246.6 361.9 247.5 385.3 194.2 388.9 193.3 365.3"/>
    <polygon id="_23" data-name="23" points="192.1 338.5 245.5 335.1 246.5 358.9 193 362.8 192.1 338.5"/>
    <polygon id="_24" data-name="24" points="190.9 311.7 244.5 309.5 245.4 332.1 191.7 336.1 190.9 311.7"/>
    <polygon id="_25" data-name="25" points="189.9 285.2 243.5 282.8 244.4 306.8 190.8 309.5 189.9 285.2"/>
    <polygon id="_26" data-name="26" points="188.8 258.8 242.5 256.4 243.4 279.8 189.7 282.2 188.8 258.8"/>
    <polygon id="_30" data-name="30" points="184.2 151.4 238.3 149 239.2 173.2 185.2 175.7 184.2 151.4"/>
    <polygon id="_29" data-name="29" points="185.4 178.6 239.3 176.1 240.3 199.7 186.4 202.2 185.4 178.6"/>
    <polygon id="_28" data-name="28" points="186.5 205.1 240.3 202.7 241.3 227.2 187.5 229.7 186.5 205.1"/>
    <polygon id="_27" data-name="27" points="187.6 231.3 241.5 228.9 242.4 253.4 188.7 255.9 187.6 231.3"/>
    <polygon id="_31" data-name="31" points="183.1 125 237.3 122.5 238.2 145.9 184.1 148.4 183.1 125"/>
    <polygon id="_32" data-name="32" points="182 98.4 236.2 96 237.2 119.5 183 122.7 182 98.4"/>
    <polygon id="_33" data-name="33" points="181 71.7 235.1 69.3 236.1 92.9 182 95.4 181 71.7"/>
    <polygon id="_34" data-name="34" points="179.8 44.2 234.2 42.4 235.1 66.4 180.8 68.9 179.8 44.2"/>
    <polygon id="_35" data-name="35" points="240.3 38.7 276.3 60 255.9 113.1 243 104.1 240.3 38.7"/>
    <polygon id="_36" data-name="36" points="278.6 61.4 305.5 78.3 272.4 124.6 258.3 114.9 278.6 61.4"/>
    <polygon id="_37" data-name="37" points="308 79.9 328.2 93.7 294.5 140.3 274.4 126.3 308 79.9"/>
    <polygon id="_38" data-name="38" points="330.5 95.2 350.3 109.6 316.3 155.4 297 141.9 330.5 95.2"/>
    <polygon id="_39" data-name="39" points="352.6 111.3 370.4 125.3 338.3 170.8 318.7 157.1 352.6 111.3"/>
    <polygon id="_40" data-name="40" points="372.8 127.2 391.9 142.3 360.1 186.1 340.7 172.5 372.8 127.2"/>
    <polygon id="_41" data-name="41" points="394.2 144.1 412.4 158.6 380.4 203.4 362.5 188 394.2 144.1"/>
    <polygon id="_43" data-name="43" points="438.3 179.5 456.9 195.3 418.3 236.2 400.3 220.5 438.3 179.5"/>
    <polygon id="_42" data-name="42" points="414.8 160.4 435.8 177.6 398 218.5 382.7 205.4 414.8 160.4"/>
    <polygon id="_44" data-name="44" points="458.5 196.6 477 212.9 438.5 253.4 420.5 238 458.5 196.6"/>
    <polygon id="_45" data-name="45" points="479.2 215 496.4 231.2 459.1 271.2 440.8 255.3 479.2 215"/>
    <polygon id="_46" data-name="46" points="498.4 233.3 515.3 250.4 476.9 290.7 461 273.2 498.4 233.3"/>
    <polygon id="_47" data-name="47" points="517.4 252.6 537.4 275.2 492.1 308.1 478.8 293 517.4 252.6"/>
    <polygon id="_48" data-name="48" points="539.2 277.5 554 296.9 508.8 328.5 502.8 319.6 494.1 309.9 539.2 277.5"/>
    <polygon id="_49" data-name="49" points="555.7 299.4 569 319.3 522.8 348.7 510.5 330.8 555.7 299.4"/>
    <polygon id="_50" data-name="50" points="570.6 321.8 584.3 344.3 537.8 370.4 524.5 351 570.6 321.8"/>
    <polygon id="_51" data-name="51" points="585.8 346.9 597.9 368.1 550.3 393.7 539.3 372.9 585.8 346.9"/>
    <polygon id="_52" data-name="52" points="599.2 370.7 622.9 415.5 571.5 434.1 551.7 396.4 599.2 370.7"/>
    <polygon id="_53" data-name="53" points="555.8 409.9 568.6 435.1 518.3 456.1 506.6 431.3 555.8 409.9"/>
    <polygon id="_54" data-name="54" points="542.6 385.6 554.3 407.4 505.2 428.5 493.1 407.2 542.6 385.6"/>
    <polygon id="_55" data-name="55" points="522 352.6 536 373.1 541.2 383 491.4 404.6 476.2 381.3 477.6 380.7 522 352.6"/>
    <polygon id="_56" data-name="56" points="501.3 322.8 520.2 350.2 475.9 378.2 474.5 378.9 458.6 357.6 459.1 357.5 501.3 322.8"/>
    <polygon id="_57" data-name="57" points="476.9 295.2 499.5 320.5 456.9 355.5 439.3 334.4 476.9 295.2"/>
    <polygon id="_58" data-name="58" points="459.1 275.3 475.1 293 437.6 331.9 437.2 332.1 421.7 315.2 459.1 275.3"/>
    <polygon id="_59" data-name="59" points="438.8 257.5 457 273.2 419.6 313.1 402.4 296 402.8 295.1 438.8 257.5"/>
    <polygon id="_60" data-name="60" points="418.6 240.1 436.5 255.6 400.1 293.8 382.9 278 418.6 240.1"/>
    <polygon id="_61" data-name="61" points="389.6 215.2 416.3 238.3 380.6 276 357 256.2 389.6 215.2"/>
    <polygon id="_62" data-name="62" points="360.6 190.3 387.4 213.3 354.7 254.4 334.1 238.2 360.6 190.3"/>
    <polygon id="_63" data-name="63" points="339.2 175 358.4 188.7 331.7 236.4 312.3 222 339.2 175"/>
    <polygon id="_64" data-name="64" points="317 159.4 336.6 173.4 310 220.3 290.4 206.4 317 159.4"/>
    <polygon id="_65" data-name="65" points="295.3 144.3 314.6 157.9 288 204.7 268.2 190.9 295.3 144.3"/>
    <polygon id="_66" data-name="66" points="243.1 107.4 292.9 142.6 265.8 189.1 245.5 174.9 243.1 107.4"/>
    <polygon id="_67" data-name="67" points="245.8 182.9 296.5 218.5 261.1 262.3 248.7 253.1 245.8 182.9"/>
    <polygon id="_68" data-name="68" points="298.9 220.3 317.6 233.8 282.2 278.4 263.4 264.1 298.9 220.3"/>
    <polygon id="_69" data-name="69" points="320.1 235.5 338.8 249.8 304.3 295.2 284.6 280.2 320.1 235.5"/>
    <polygon id="_70" data-name="70" points="341.1 251.6 359.9 266.8 323.6 311.6 306.7 297 341.1 251.6"/>
    <polygon id="_71" data-name="71" points="362.1 268.6 376.9 281.3 344.4 329.3 325.9 313.3 362.1 268.6"/>
    <polygon id="_72" data-name="72" points="379 283.3 396.5 299.3 364.3 346.6 348 333 346.7 331.4 379 283.3"/>
    <polygon id="_73" data-name="73" points="398.6 301.4 431.7 335.6 382.7 366.6 366.6 348.5 398.6 301.4"/>
    <polygon id="_74" data-name="74" points="433.7 337.8 451.1 358.6 401.4 387.2 384.8 368.7 433.7 337.8"/>
    <polygon id="_75" data-name="75" points="453.1 361 468.6 381.8 419 406.8 403.5 389.4 453.1 361"/>
    <polygon id="_76" data-name="76" points="470.4 384.3 485.5 407.3 432.3 430.8 420.6 409.1 470.4 384.3"/>
    <polygon id="_77" data-name="77" points="487.1 409.8 499.3 431.1 445.4 454.4 433.7 433 487.1 409.8"/>
    <polygon id="_78" data-name="78" points="500.7 433.6 512.9 458.2 459.5 480.5 446.8 457 500.7 433.6"/>
    <polygon id="_79" data-name="79" points="430.9 433.9 456.8 481.8 433.3 491.9 408.3 443.9 430.9 433.9"/>
    <polygon id="_80" data-name="80" points="405.8 445.1 430.7 493 405.3 504 382.8 455.1 405.8 445.1"/>
    <polygon id="_82" data-name="82" points="337.9 463.9 339 517.8 315 519.5 314.1 465.3 337.9 463.9"/>
    <polygon id="_81" data-name="81" points="364.4 462.3 365.7 515.9 342 517.6 341 463.8 364.4 462.3"/>
    <polygon id="_91" data-name="81" points="380 456.2 402.4 505.2 380.4 514.9 368.7 515.7 367.4 461.7 380 456.2"/>
    <polygon id="_83" data-name="83" points="311.5 493.6 312.1 519.7 258.9 524 258.2 495.8 311.5 493.6"/>
    <polygon id="_84" data-name="84" points="311 465.5 311.6 490.6 258.1 492.9 257.1 468.5 311 465.5"/>
    <polygon id="_85" data-name="85" points="310.1 439.9 311 462.5 257.1 465.5 256.2 443.5 310.1 439.9"/>
    <polygon id="_86" data-name="86" points="309.2 411.8 310.1 437.1 256 440.5 255.1 415 309.2 411.8"/>
    <polygon id="_87" data-name="87" points="308.1 384.4 309.1 408.9 255 412.1 254 387.9 308.1 384.4"/>
    <polygon id="_88" data-name="88" points="307.1 357.9 308 381.4 253.8 384.9 253 361.5 307.1 357.9"/>
    <polygon id="_89" data-name="89" points="306.1 331.4 307 354.9 252.9 358.6 252 334.8 306.1 331.4"/>
    <polygon id="_90" data-name="90" points="305.4 311.2 306 328.6 251.8 331.8 249.4 269 305.4 311.2"/>
  </g>
  <g>
    <text class="cls-1" transform="translate(615.2 452.8)">1</text>
    <text class="cls-2" transform="translate(615.2 452.8)">1</text>
  </g>
  <g>
    <text class="cls-1" transform="translate(582.7 474.3)">2</text>
    <text class="cls-2" transform="translate(582.7 474.3)">2</text>
  </g>
  <g>
    <text class="cls-1" transform="translate(558.6 489.1)">3</text>
    <text class="cls-2" transform="translate(558.6 489.1)">3</text>
  </g>
  <g>
    <text class="cls-1" transform="translate(533.6 499.5)">4</text>
    <text class="cls-2" transform="translate(533.6 499.5)">4</text>
  </g>
  <g>
    <text class="cls-1" transform="translate(510.9 508.3)">5</text>
    <text class="cls-2" transform="translate(510.9 508.3)">5</text>
  </g>
  <g>
    <text class="cls-1" transform="translate(485.8 519.2)">6</text>
    <text class="cls-2" transform="translate(485.8 519.2)">6</text>
  </g>
  <g>
    <text class="cls-1" transform="translate(463.3 529)">7</text>
    <text class="cls-2" transform="translate(463.3 529)">7</text>
  </g>
  <g>
    <text class="cls-1" transform="translate(436.7 540.6)">8</text>
    <text class="cls-2" transform="translate(436.7 540.6)">8</text>
  </g>
  <g>
    <text class="cls-1" transform="translate(413.3 550.4)">9</text>
    <text class="cls-2" transform="translate(413.3 550.4)">9</text>
  </g>
  <g>
    <text class="cls-1" transform="translate(378.5 562.5)">10</text>
    <text class="cls-2" transform="translate(378.5 562.5)">10</text>
  </g>
  <g>
    <text class="cls-3" transform="translate(349 563.5)">1<tspan class="cls-4" x="7.5" y="0">1</tspan></text>
    <text class="cls-5" transform="translate(349 563.5)">1<tspan class="cls-4" x="7.5" y="0">1</tspan></text>
  </g>
  <g>
    <text class="cls-1" transform="translate(321.8 564.5)">12</text>
    <text class="cls-2" transform="translate(321.8 564.5)">12</text>
  </g>
  <g>
    <text class="cls-1" transform="translate(293.7 565.5)">13</text>
    <text class="cls-2" transform="translate(293.7 565.5)">13</text>
  </g>
  <g>
    <text class="cls-1" transform="translate(265.2 565.5)">14</text>
    <text class="cls-2" transform="translate(265.2 565.5)">14</text>
  </g>
  <g>
    <text class="cls-1" transform="translate(237.3 566.5)">15</text>
    <text class="cls-2" transform="translate(237.3 566.5)">15</text>
  </g>
  <g>
    <text class="cls-1" transform="translate(209.1 567.5)">16</text>
    <text class="cls-2" transform="translate(209.1 567.5)">16</text>
  </g>
  <g>
    <text class="cls-1" transform="translate(216 516.5)">17</text>
    <text class="cls-2" transform="translate(216 516.5)">17</text>
  </g>
  <g>
    <text class="cls-1" transform="translate(215 487.5)">18</text>
    <text class="cls-2" transform="translate(215 487.5)">18</text>
  </g>
  <g>
    <text class="cls-1" transform="translate(215 462)">19</text>
    <text class="cls-2" transform="translate(215 462)">19</text>
  </g>
  <g>
    <text class="cls-1" transform="translate(213 434.3)">20</text>
    <text class="cls-2" transform="translate(213 434.3)">20</text>
  </g>
  <g>
    <text class="cls-1" transform="translate(214 406.8)">21</text>
    <text class="cls-2" transform="translate(214 406.8)">21</text>
  </g>
  <g>
    <text class="cls-1" transform="translate(212 379.6)">22</text>
    <text class="cls-2" transform="translate(212 379.6)">22</text>
  </g>
  <g>
    <text class="cls-1" transform="translate(211 354.6)">23</text>
    <text class="cls-2" transform="translate(211 354.6)">23</text>
  </g>
  <g>
    <text class="cls-1" transform="translate(210 328.1)">24</text>
    <text class="cls-2" transform="translate(210 328.1)">24</text>
  </g>
  <g>
    <text class="cls-1" transform="translate(208 301.4)">25</text>
    <text class="cls-2" transform="translate(208 301.4)">25</text>
  </g>
  <g>
    <text class="cls-1" transform="translate(207 275.4)">26</text>
    <text class="cls-2" transform="translate(207 275.4)">26</text>
  </g>
  <g>
    <text class="cls-1" transform="translate(203 167.6)">30</text>
    <text class="cls-2" transform="translate(203 167.6)">30</text>
  </g>
  <g>
    <text class="cls-1" transform="translate(203 193.9)">29</text>
    <text class="cls-2" transform="translate(203 193.9)">29</text>
  </g>
  <g>
    <text class="cls-1" transform="translate(205 221.6)">28</text>
    <text class="cls-2" transform="translate(205 221.6)">28</text>
  </g>
  <g>
    <text class="cls-1" transform="translate(207 247.8)">27</text>
    <text class="cls-2" transform="translate(207 247.8)">27</text>
  </g>
  <g>
    <text class="cls-1" transform="translate(203 141.6)">31</text>
    <text class="cls-2" transform="translate(203 141.6)">31</text>
  </g>
  <g>
    <text class="cls-1" transform="translate(200 114.1)">32</text>
    <text class="cls-2" transform="translate(200 114.1)">32</text>
  </g>
  <g>
    <text class="cls-1" transform="translate(199 87.4)">33</text>
    <text class="cls-2" transform="translate(199 87.4)">33</text>
  </g>
  <g>
    <text class="cls-1" transform="translate(198 62.4)">34</text>
    <text class="cls-2" transform="translate(198 62.4)">34</text>
  </g>
  <g>
    <text class="cls-1" transform="translate(245.8 81.5)">35</text>
    <text class="cls-2" transform="translate(245.8 81.5)">35</text>
  </g>
  <g>
    <text class="cls-1" transform="translate(271.3 97.1)">36</text>
    <text class="cls-2" transform="translate(271.3 97.1)">36</text>
  </g>
  <g>
    <text class="cls-1" transform="translate(293.8 113.4)">37</text>
    <text class="cls-2" transform="translate(293.8 113.4)">37</text>
  </g>
  <g>
    <text class="cls-1" transform="translate(314.7 130.3)">38</text>
    <text class="cls-2" transform="translate(314.7 130.3)">38</text>
  </g>
  <g>
    <text class="cls-1" transform="translate(334.7 147.9)">39</text>
    <text class="cls-2" transform="translate(334.7 147.9)">39</text>
  </g>
  <g>
    <text class="cls-1" transform="translate(355.6 162.3)">40</text>
    <text class="cls-2" transform="translate(355.6 162.3)">40</text>
  </g>
  <g>
    <text class="cls-1" transform="translate(380.6 178)">41</text>
    <text class="cls-2" transform="translate(380.6 178)">41</text>
  </g>
  <g>
    <text class="cls-1" transform="translate(421 210.8)">43</text>
    <text class="cls-2" transform="translate(421 210.8)">43</text>
  </g>
  <g>
    <text class="cls-1" transform="translate(400.4 194.4)">42</text>
    <text class="cls-2" transform="translate(400.4 194.4)">42</text>
  </g>
  <g>
    <text class="cls-1" transform="translate(439 228.7)">44</text>
    <text class="cls-2" transform="translate(439 228.7)">44</text>
  </g>
  <g>
    <text class="cls-1" transform="translate(459.6 246.6)">45</text>
    <text class="cls-2" transform="translate(459.6 246.6)">45</text>
  </g>
  <g>
    <text class="cls-1" transform="translate(480.7 265.4)">46</text>
    <text class="cls-2" transform="translate(480.7 265.4)">46</text>
  </g>
  <g>
    <text class="cls-1" transform="translate(501.3 284.6)">47</text>
    <text class="cls-2" transform="translate(501.3 284.6)">47</text>
  </g>
  <g>
    <text class="cls-1" transform="translate(517.7 305.2)">48</text>
    <text class="cls-2" transform="translate(517.7 305.2)">48</text>
  </g>
  <g>
    <text class="cls-1" transform="translate(534.1 326.3)">49</text>
    <text class="cls-2" transform="translate(534.1 326.3)">49</text>
  </g>
  <g>
    <text class="cls-1" transform="translate(550.5 348.9)">50</text>
    <text class="cls-2" transform="translate(550.5 348.9)">50</text>
  </g>
  <g>
    <text class="cls-1" transform="translate(563 375)">51</text>
    <text class="cls-2" transform="translate(563 375)">51</text>
  </g>
  <g>
    <text class="cls-1" transform="translate(578.6 406.8)">52</text>
    <text class="cls-2" transform="translate(578.6 406.8)">52</text>
  </g>
  <g>
    <text class="cls-1" transform="translate(528.9 436.8)">53</text>
    <text class="cls-2" transform="translate(528.9 436.8)">53</text>
  </g>
  <g>
    <text class="cls-1" transform="translate(513.8 413.8)">54</text>
    <text class="cls-2" transform="translate(513.8 413.8)">54</text>
  </g>
  <g>
    <text class="cls-1" transform="translate(501.5 384.9)">55</text>
    <text class="cls-2" transform="translate(501.5 384.9)">55</text>
  </g>
  <g>
    <text class="cls-1" transform="translate(480.1 358.9)">56</text>
    <text class="cls-2" transform="translate(480.1 358.9)">56</text>
  </g>
  <g>
    <text class="cls-1" transform="translate(459.6 331.4)">57</text>
    <text class="cls-2" transform="translate(459.6 331.4)">57</text>
  </g>
  <g>
    <text class="cls-1" transform="translate(439.5 308.1)">58</text>
    <text class="cls-2" transform="translate(439.5 308.1)">58</text>
  </g>
  <g>
    <text class="cls-1" transform="translate(423.1 287.6)">59</text>
    <text class="cls-2" transform="translate(423.1 287.6)">59</text>
  </g>
  <g>
    <text class="cls-1" transform="translate(400.5 270.7)">60</text>
    <text class="cls-2" transform="translate(400.5 270.7)">60</text>
  </g>
  <g>
    <text class="cls-1" transform="translate(377.6 248.8)">61</text>
    <text class="cls-2" transform="translate(377.6 248.8)">61</text>
  </g>
  <g>
    <text class="cls-1" transform="translate(352.2 224.7)">62</text>
    <text class="cls-2" transform="translate(352.2 224.7)">62</text>
  </g>
  <g>
    <text class="cls-1" transform="translate(326.4 210.2)">63</text>
    <text class="cls-2" transform="translate(326.4 210.2)">63</text>
  </g>
  <g>
    <text class="cls-1" transform="translate(304.9 193.9)">64</text>
    <text class="cls-2" transform="translate(304.9 193.9)">64</text>
  </g>
  <g>
    <text class="cls-1" transform="translate(283.4 179.4)">65</text>
    <text class="cls-2" transform="translate(283.4 179.4)">65</text>
  </g>
  <g>
    <text class="cls-1" transform="translate(256.4 158.8)">66</text>
    <text class="cls-2" transform="translate(256.4 158.8)">66</text>
  </g>
  <g>
    <text class="cls-1" transform="translate(256.4 232.6)">67</text>
    <text class="cls-2" transform="translate(256.4 232.6)">67</text>
  </g>
  <g>
    <text class="cls-1" transform="translate(280.3 254.8)">68</text>
    <text class="cls-2" transform="translate(280.3 254.8)">68</text>
  </g>
  <g>
    <text class="cls-1" transform="translate(302.6 269.9)">69</text>
    <text class="cls-2" transform="translate(302.6 269.9)">69</text>
  </g>
  <g>
    <text class="cls-1" transform="translate(323 287.7)">70</text>
    <text class="cls-2" transform="translate(323 287.7)">70</text>
  </g>
  <g>
    <text class="cls-1" transform="translate(343.3 306.5)">71</text>
    <text class="cls-2" transform="translate(343.3 306.5)">71</text>
  </g>
  <g>
    <text class="cls-1" transform="translate(361.6 322.4)">72</text>
    <text class="cls-2" transform="translate(361.6 322.4)">72</text>
  </g>
  <g>
    <text class="cls-1" transform="translate(384.4 343)">73</text>
    <text class="cls-2" transform="translate(384.4 343)">73</text>
  </g>
  <g>
    <text class="cls-1" transform="translate(408.3 368.3)">74</text>
    <text class="cls-2" transform="translate(408.3 368.3)">74</text>
  </g>
  <g>
    <text class="cls-1" transform="translate(428.7 389.4)">75</text>
    <text class="cls-2" transform="translate(428.7 389.4)">75</text>
  </g>
  <g>
    <text class="cls-1" transform="translate(443.1 413.6)">76</text>
    <text class="cls-2" transform="translate(443.1 413.6)">76</text>
  </g>
  <g>
    <text class="cls-1" transform="translate(459.6 436.8)">77</text>
    <text class="cls-2" transform="translate(459.6 436.8)">77</text>
  </g>
  <g>
    <text class="cls-1" transform="translate(471 463)">78</text>
    <text class="cls-2" transform="translate(471 463)">78</text>
  </g>
  <g>
    <text class="cls-1" transform="translate(423.7 468)">79</text>
    <text class="cls-2" transform="translate(423.7 468)">79</text>
  </g>
  <g>
    <text class="cls-1" transform="translate(397.7 480.3)">80</text>
    <text class="cls-2" transform="translate(397.7 480.3)">80</text>
  </g>
  <g>
    <text class="cls-1" transform="translate(317.9 499)">83</text>
    <text class="cls-2" transform="translate(317.9 499)">83</text>
  </g>
  <g>
    <text class="cls-1" transform="translate(344.4 496.4)">82</text>
    <text class="cls-2" transform="translate(344.4 496.4)">82</text>
  </g>
  <g>
    <text class="cls-1" transform="translate(372.4 495.5)">81</text>
    <text class="cls-2" transform="translate(372.4 495.5)">81</text>
  </g>
  <g>
    <text class="cls-1" transform="translate(278.3 510.2)">84</text>
    <text class="cls-2" transform="translate(278.3 510.2)">84</text>
  </g>
  <g>
    <text class="cls-1" transform="translate(274.7 484.3)">85</text>
    <text class="cls-2" transform="translate(274.7 484.3)">85</text>
  </g>
  <g>
    <text class="cls-1" transform="translate(274.4 459.8)">86</text>
    <text class="cls-2" transform="translate(274.4 459.8)">86</text>
  </g>
  <g>
    <text class="cls-1" transform="translate(274.4 430.7)">87</text>
    <text class="cls-2" transform="translate(274.4 430.7)">87</text>
  </g>
  <g>
    <text class="cls-1" transform="translate(274.4 403.9)">88</text>
    <text class="cls-2" transform="translate(274.4 403.9)">88</text>
  </g>
  <g>
    <text class="cls-1" transform="translate(274.4 376.3)">89</text>
    <text class="cls-2" transform="translate(274.4 376.3)">89</text>
  </g>
  <g>
    <text class="cls-1" transform="translate(274.4 349.9)">90</text>
    <text class="cls-2" transform="translate(274.4 349.9)">90</text>
  </g>
  <g>
    <text class="cls-1" transform="translate(274.4 318.4)">91</text>
    <text class="cls-2" transform="translate(274.4 318.4)">91</text>
  </g>
</svg>
