<svg id="Modo_de_aislamiento" data-name="Modo de aislamiento" xmlns="http://www.w3.org/2000/svg" xmlns:xlink="http://www.w3.org/1999/xlink" viewBox="0 0 304.3 304.3">
  <defs>
    <style>
      .cls-1 {
        fill: url(#linear-gradient);
      }

      .cls-2 {
        fill: url(#linear-gradient-2);
      }

      .cls-3 {
        fill: url(#linear-gradient-3);
      }

      .cls-4 {
        fill: url(#linear-gradient-4);
      }

      .cls-5 {
        fill: url(#linear-gradient-5);
      }

      .cls-6 {
        fill: url(#linear-gradient-6);
      }

      .cls-7 {
        fill: url(#linear-gradient-7);
      }

      .cls-8 {
        fill: url(#linear-gradient-8);
      }

      .cls-9 {
        fill: url(#linear-gradient-9);
      }

      .cls-10 {
        fill: url(#linear-gradient-10);
      }

      .cls-11 {
        fill: url(#linear-gradient-11);
      }

      .cls-12 {
        fill: url(#linear-gradient-12);
      }

      .cls-13 {
        fill: url(#linear-gradient-13);
      }

      .cls-14 {
        fill: url(#linear-gradient-14);
      }

      .cls-15 {
        fill: url(#linear-gradient-15);
      }

      .cls-16 {
        fill: url(#linear-gradient-16);
      }

      .cls-17 {
        fill: url(#linear-gradient-17);
      }

      .cls-18 {
        fill: url(#linear-gradient-18);
      }

      .cls-19 {
        fill: url(#linear-gradient-19);
      }

      .cls-20 {
        fill: url(#linear-gradient-20);
      }

      .cls-21 {
        fill: url(#linear-gradient-21);
      }

      .cls-22 {
        fill: url(#linear-gradient-22);
      }

      .cls-23 {
        fill: url(#linear-gradient-23);
      }

      .cls-24 {
        fill: url(#linear-gradient-24);
      }

      .cls-25 {
        fill: url(#linear-gradient-25);
      }

      .cls-26 {
        fill: url(#linear-gradient-26);
      }

      .cls-27 {
        fill: url(#linear-gradient-27);
      }

      .cls-28 {
        fill: url(#linear-gradient-28);
      }

      .cls-29 {
        fill: url(#linear-gradient-29);
      }

      .cls-30 {
        fill: url(#linear-gradient-30);
      }

      .cls-31 {
        fill: url(#linear-gradient-31);
      }

      .cls-32 {
        fill: url(#linear-gradient-32);
      }

      .cls-33 {
        fill: url(#linear-gradient-33);
      }

      .cls-34 {
        fill: url(#linear-gradient-34);
      }

      .cls-35 {
        fill: url(#linear-gradient-35);
      }

      .cls-36 {
        fill: url(#linear-gradient-36);
      }

      .cls-37 {
        fill: url(#linear-gradient-37);
      }

      .cls-38 {
        fill: url(#linear-gradient-38);
      }

      .cls-39 {
        fill: url(#linear-gradient-39);
      }

      .cls-40 {
        fill: url(#linear-gradient-40);
      }

      .cls-41 {
        fill: url(#linear-gradient-41);
      }

      .cls-42 {
        fill: url(#linear-gradient-42);
      }

      .cls-43 {
        fill: url(#linear-gradient-43);
      }

      .cls-44 {
        fill: url(#linear-gradient-44);
      }

      .cls-45 {
        fill: url(#linear-gradient-45);
      }

      .cls-46 {
        fill: url(#linear-gradient-46);
      }

      .cls-47 {
        fill: url(#linear-gradient-47);
      }

      .cls-48 {
        fill: url(#linear-gradient-48);
      }

      .cls-49 {
        fill: url(#linear-gradient-49);
      }

      .cls-50 {
        fill: url(#linear-gradient-50);
      }

      .cls-51 {
        fill: url(#linear-gradient-51);
      }

      .cls-52 {
        fill: url(#linear-gradient-52);
      }

      .cls-53 {
        fill: url(#linear-gradient-53);
      }

      .cls-54 {
        fill: url(#linear-gradient-54);
      }

      .cls-55 {
        fill: url(#linear-gradient-55);
      }

      .cls-56 {
        fill: url(#linear-gradient-56);
      }

      .cls-57 {
        fill: url(#linear-gradient-57);
      }

      .cls-58 {
        fill: url(#linear-gradient-58);
      }

      .cls-59 {
        fill: url(#linear-gradient-59);
      }

      .cls-60 {
        fill: url(#linear-gradient-60);
      }

      .cls-61 {
        fill: url(#linear-gradient-61);
      }

      .cls-62 {
        fill: url(#linear-gradient-62);
      }

      .cls-63 {
        fill: url(#linear-gradient-63);
      }

      .cls-64 {
        fill: url(#linear-gradient-64);
      }

      .cls-65 {
        fill: url(#linear-gradient-65);
      }

      .cls-66 {
        fill: url(#linear-gradient-66);
      }

      .cls-67 {
        fill: url(#linear-gradient-67);
      }

      .cls-68 {
        fill: url(#linear-gradient-68);
      }

      .cls-69 {
        fill: url(#linear-gradient-69);
      }

      .cls-70 {
        fill: url(#linear-gradient-70);
      }

      .cls-71 {
        fill: url(#linear-gradient-71);
      }

      .cls-72 {
        fill: url(#linear-gradient-72);
      }

      .cls-73 {
        fill: url(#linear-gradient-73);
      }

      .cls-74 {
        fill: url(#linear-gradient-74);
      }

      .cls-75 {
        fill: url(#linear-gradient-75);
      }

      .cls-76 {
        fill: url(#linear-gradient-76);
      }
    </style>
    <linearGradient id="linear-gradient" x1="-1227.59" y1="637.39" x2="-1306.42" y2="510.95" gradientTransform="translate(1039.4 1201.1) rotate(77.2)" gradientUnits="userSpaceOnUse">
      <stop offset="0" stop-color="#a36d4f"/>
      <stop offset="1" stop-color="#1e1d2b"/>
    </linearGradient>
    <linearGradient id="linear-gradient-2" x1="-1222.36" y1="634.13" x2="-1302.43" y2="505.72" xlink:href="#linear-gradient"/>
    <linearGradient id="linear-gradient-3" x1="-1066.45" y1="708.79" x2="-1157.65" y2="586.39" gradientTransform="matrix(0.14, 0.99, -0.99, 0.14, 1005.61, 1110.63)" xlink:href="#linear-gradient"/>
    <linearGradient id="linear-gradient-4" x1="-906.43" y1="769.38" x2="-1007.62" y2="654.76" gradientTransform="translate(979.2 1019) rotate(86.6)" xlink:href="#linear-gradient"/>
    <linearGradient id="linear-gradient-5" x1="-741.1" y1="815.84" x2="-850.87" y2="710.53" gradientTransform="translate(960 924.4) rotate(91.4)" xlink:href="#linear-gradient"/>
    <linearGradient id="linear-gradient-6" x1="-573.76" y1="847.86" x2="-690.46" y2="753.15" gradientTransform="translate(948.4 829.3) rotate(96.1)" xlink:href="#linear-gradient"/>
    <linearGradient id="linear-gradient-7" x1="-404.63" y1="866.86" x2="-526.43" y2="783.74" gradientTransform="translate(945.9 733.5) rotate(100.9)" xlink:href="#linear-gradient"/>
    <linearGradient id="linear-gradient-8" x1="-234.76" y1="870.41" x2="-359.69" y2="799.54" gradientTransform="translate(950.2 637.4) rotate(105.6)" xlink:href="#linear-gradient"/>
    <linearGradient id="linear-gradient-9" x1="-65.06" y1="860.8" x2="-191.06" y2="802.54" gradientTransform="matrix(-0.35, 0.94, -0.94, -0.35, 963.59, 541.66)" xlink:href="#linear-gradient"/>
    <linearGradient id="linear-gradient-10" x1="101.2" y1="836.6" x2="-23.78" y2="790.95" gradientTransform="translate(983.7 448.5) rotate(115.1)" xlink:href="#linear-gradient"/>
    <linearGradient id="linear-gradient-11" x1="265.42" y1="799" x2="143.5" y2="765.61" gradientTransform="translate(1012.1 356.5) rotate(119.9)" xlink:href="#linear-gradient"/>
    <linearGradient id="linear-gradient-12" x1="425.87" y1="749.17" x2="308.99" y2="727.36" gradientTransform="matrix(-0.57, 0.82, -0.82, -0.57, 1049.04, 267.45)" xlink:href="#linear-gradient"/>
    <linearGradient id="linear-gradient-13" x1="579.55" y1="684.98" x2="469.56" y2="673.76" gradientTransform="translate(1091.2 182.1) rotate(129.4)" xlink:href="#linear-gradient"/>
    <linearGradient id="linear-gradient-14" x1="728.13" y1="609.26" x2="626.64" y2="607.36" gradientTransform="matrix(-0.7, 0.72, -0.72, -0.7, 1141.33, 100.1)" xlink:href="#linear-gradient"/>
    <linearGradient id="linear-gradient-15" x1="869.28" y1="522.15" x2="777.72" y2="528.04" gradientTransform="matrix(-0.75, 0.66, -0.66, -0.75, 1198.06, 22.94)" xlink:href="#linear-gradient"/>
    <linearGradient id="linear-gradient-16" x1="1003.39" y1="423.01" x2="922.88" y2="434.94" gradientTransform="translate(1261.1 -50.6) rotate(143.6)" xlink:href="#linear-gradient"/>
    <linearGradient id="linear-gradient-17" x1="1127.96" y1="314.64" x2="1059.35" y2="330.7" gradientTransform="matrix(-0.85, 0.52, -0.52, -0.85, 1329.94, -117.44)" xlink:href="#linear-gradient"/>
    <linearGradient id="linear-gradient-18" x1="1242.84" y1="196.28" x2="1186.64" y2="214.46" gradientTransform="matrix(-0.89, 0.45, -0.45, -0.89, 1403.71, -178.79)" xlink:href="#linear-gradient"/>
    <linearGradient id="linear-gradient-19" x1="1347.89" y1="70.22" x2="1304.28" y2="88.44" gradientTransform="matrix(-0.93, 0.38, -0.38, -0.93, 1482.91, -233.18)" xlink:href="#linear-gradient"/>
    <linearGradient id="linear-gradient-20" x1="1442.02" y1="-64.38" x2="1410.8" y2="-48.18" gradientTransform="translate(1566 -281.5) rotate(162.6)" xlink:href="#linear-gradient"/>
    <linearGradient id="linear-gradient-21" x1="1524.7" y1="-204.95" x2="1505.37" y2="-192.79" gradientTransform="translate(1652.8 -321.9) rotate(167.4)" xlink:href="#linear-gradient"/>
    <linearGradient id="linear-gradient-22" x1="1594.87" y1="-352.31" x2="1586.6" y2="-346.1" gradientTransform="matrix(-0.99, 0.14, -0.14, -0.99, 1741.81, -355.83)" xlink:href="#linear-gradient"/>
    <linearGradient id="linear-gradient-23" x1="1657.14" y1="-506.73" x2="1653.19" y2="-503.21" gradientTransform="matrix(-1, 0.05, -0.05, -1, 1834.65, -381.9)" xlink:href="#linear-gradient"/>
    <linearGradient id="linear-gradient-24" x1="1712.23" y1="-672.71" x2="1699.95" y2="-659.81" gradientTransform="translate(1929.1 -400.9) rotate(-178.4)" xlink:href="#linear-gradient"/>
    <linearGradient id="linear-gradient-25" x1="1752.66" y1="-841.61" x2="1733.71" y2="-818.07" gradientTransform="translate(2024.2 -410.9) rotate(-173.6)" xlink:href="#linear-gradient"/>
    <linearGradient id="linear-gradient-26" x1="1778.62" y1="-1014.32" x2="1754.84" y2="-979.19" gradientTransform="translate(2120.1 -413.6) rotate(-168.9)" xlink:href="#linear-gradient"/>
    <linearGradient id="linear-gradient-27" x1="1789.36" y1="-1189.16" x2="1762.73" y2="-1141.78" gradientTransform="translate(2215.9 -408.9) rotate(-164.1)" xlink:href="#linear-gradient"/>
    <linearGradient id="linear-gradient-28" x1="1786.1" y1="-1363.78" x2="1758.68" y2="-1303.84" gradientTransform="translate(2311.5 -395.3) rotate(-159.4)" xlink:href="#linear-gradient"/>
    <linearGradient id="linear-gradient-29" x1="1766.4" y1="-1537.98" x2="1740.26" y2="-1465.52" gradientTransform="translate(2404.8 -375) rotate(-154.6)" xlink:href="#linear-gradient"/>
    <linearGradient id="linear-gradient-30" x1="1732.94" y1="-1709.01" x2="1710.12" y2="-1624.4" gradientTransform="matrix(-0.86, -0.5, 0.5, -0.86, 2496.3, -345.83)" xlink:href="#linear-gradient"/>
    <linearGradient id="linear-gradient-31" x1="1684.5" y1="-1877.04" x2="1666.97" y2="-1780.98" gradientTransform="translate(2585.2 -309.8) rotate(-145.1)" xlink:href="#linear-gradient"/>
    <linearGradient id="linear-gradient-32" x1="1622.6" y1="-2040.6" x2="1612.17" y2="-1934.11" gradientTransform="matrix(-0.77, -0.64, 0.64, -0.77, 2671.55, -266.27)" xlink:href="#linear-gradient"/>
    <linearGradient id="linear-gradient-33" x1="1546.24" y1="-2196.56" x2="1544.54" y2="-2080.93" gradientTransform="matrix(-0.71, -0.7, 0.7, -0.71, 2752.29, -215.46)" xlink:href="#linear-gradient"/>
    <linearGradient id="linear-gradient-34" x1="1457.63" y1="-2346.7" x2="1466.04" y2="-2223.51" gradientTransform="translate(2830.2 -158.2) rotate(-130.9)" xlink:href="#linear-gradient"/>
    <linearGradient id="linear-gradient-35" x1="1355.66" y1="-2488.06" x2="1375.29" y2="-2359.06" gradientTransform="translate(2902.2 -95.3) rotate(-126.1)" xlink:href="#linear-gradient"/>
    <linearGradient id="linear-gradient-36" x1="1242.43" y1="-2620.68" x2="1274.09" y2="-2487.79" gradientTransform="matrix(-0.52, -0.85, 0.85, -0.52, 2969.52, -26.73)" xlink:href="#linear-gradient"/>
    <linearGradient id="linear-gradient-37" x1="1118.62" y1="-2741.2" x2="1162.8" y2="-2606.45" gradientTransform="translate(3029.2 47.7) rotate(-116.6)" xlink:href="#linear-gradient"/>
    <linearGradient id="linear-gradient-38" x1="985.45" y1="-2852.55" x2="1042.28" y2="-2718.02" gradientTransform="matrix(-0.37, -0.93, 0.93, -0.37, 3084.58, 126.83)" xlink:href="#linear-gradient"/>
    <linearGradient id="linear-gradient-39" x1="843.27" y1="-2951.31" x2="912.54" y2="-2819.07" gradientTransform="translate(3132.5 209.9) rotate(-107.1)" xlink:href="#linear-gradient"/>
    <linearGradient id="linear-gradient-40" x1="693.69" y1="-3036.98" x2="774.86" y2="-2909.06" gradientTransform="translate(3172.9 296.8) rotate(-102.4)" xlink:href="#linear-gradient"/>
    <linearGradient id="linear-gradient-41" x1="537.9" y1="-3109.78" x2="630.12" y2="-2988.06" gradientTransform="translate(3206.2 387) rotate(-97.6)" xlink:href="#linear-gradient"/>
    <linearGradient id="linear-gradient-42" x1="376.83" y1="-3168.94" x2="478.91" y2="-3055.15" gradientTransform="translate(3231.9 479.4) rotate(-92.9)" xlink:href="#linear-gradient"/>
    <linearGradient id="linear-gradient-43" x1="211.53" y1="-3214.94" x2="322.04" y2="-3110.6" gradientTransform="matrix(0.03, -1, 1, 0.03, 3250.73, 573.64)" xlink:href="#linear-gradient"/>
    <linearGradient id="linear-gradient-44" x1="43.43" y1="-3245.91" x2="160.7" y2="-3152.27" gradientTransform="translate(3260.7 668.7) rotate(-83.4)" xlink:href="#linear-gradient"/>
    <linearGradient id="linear-gradient-45" x1="-125.47" y1="-3262.3" x2="-3.27" y2="-3180.32" gradientTransform="translate(3262.1 764.9) rotate(-78.6)" xlink:href="#linear-gradient"/>
    <linearGradient id="linear-gradient-46" x1="-295.7" y1="-3265.34" x2="-170.58" y2="-3195.67" gradientTransform="translate(3257 860.3) rotate(-73.9)" xlink:href="#linear-gradient"/>
    <linearGradient id="linear-gradient-47" x1="-464.12" y1="-3254.05" x2="-338.13" y2="-3197" gradientTransform="translate(3243.1 955.8) rotate(-69.2)" xlink:href="#linear-gradient"/>
    <linearGradient id="linear-gradient-48" x1="-630.64" y1="-3229.32" x2="-505.85" y2="-3184.86" gradientTransform="translate(3222 1050) rotate(-64.4)" xlink:href="#linear-gradient"/>
    <linearGradient id="linear-gradient-49" x1="-794.93" y1="-3189.83" x2="-673.42" y2="-3157.58" gradientTransform="matrix(0.51, -0.86, 0.86, 0.51, 3192.76, 1140.28)" xlink:href="#linear-gradient"/>
    <linearGradient id="linear-gradient-50" x1="-954.24" y1="-3138.59" x2="-837.95" y2="-3117.85" gradientTransform="matrix(0.58, -0.82, 0.82, 0.58, 3156.89, 1229.85)" xlink:href="#linear-gradient"/>
    <linearGradient id="linear-gradient-51" x1="-1108.38" y1="-3073.23" x2="-999.13" y2="-3062.97" gradientTransform="translate(3112.6 1314.7) rotate(-50.2)" xlink:href="#linear-gradient"/>
    <linearGradient id="linear-gradient-52" x1="-1256.06" y1="-2996.59" x2="-1155.46" y2="-2995.51" gradientTransform="matrix(0.7, -0.71, 0.71, 0.7, 3062.09, 1396.68)" xlink:href="#linear-gradient"/>
    <linearGradient id="linear-gradient-53" x1="-1396.32" y1="-2907.74" x2="-1305.77" y2="-2914.28" gradientTransform="translate(3004.2 1473.6) rotate(-40.7)" xlink:href="#linear-gradient"/>
    <linearGradient id="linear-gradient-54" x1="-1529.36" y1="-2808.76" x2="-1449.98" y2="-2821.17" gradientTransform="matrix(0.81, -0.59, 0.59, 0.81, 2941.63, 1545.83)" xlink:href="#linear-gradient"/>
    <linearGradient id="linear-gradient-55" x1="-1652.57" y1="-2698.67" x2="-1585.15" y2="-2715.02" gradientTransform="translate(2871.5 1612) rotate(-31.2)" xlink:href="#linear-gradient"/>
    <linearGradient id="linear-gradient-56" x1="-1766.81" y1="-2579.7" x2="-1711.82" y2="-2597.97" gradientTransform="matrix(0.9, -0.44, 0.44, 0.9, 2797.26, 1672.43)" xlink:href="#linear-gradient"/>
    <linearGradient id="linear-gradient-57" x1="-1870.64" y1="-2452.75" x2="-1828.22" y2="-2470.86" gradientTransform="matrix(0.93, -0.37, 0.37, 0.93, 2718.25, 1727.25)" xlink:href="#linear-gradient"/>
    <linearGradient id="linear-gradient-58" x1="-1963.41" y1="-2317.11" x2="-1933.36" y2="-2333.01" gradientTransform="translate(2634.3 1774.1) rotate(-16.9)" xlink:href="#linear-gradient"/>
    <linearGradient id="linear-gradient-59" x1="-2045.09" y1="-2175.27" x2="-2026.87" y2="-2186.94" gradientTransform="translate(2547.3 1814.4) rotate(-12.2)" xlink:href="#linear-gradient"/>
    <linearGradient id="linear-gradient-60" x1="-2115.37" y1="-2027.44" x2="-2108.1" y2="-2032.99" gradientTransform="matrix(0.99, -0.13, 0.13, 0.99, 2457.65, 1847.07)" xlink:href="#linear-gradient"/>
    <linearGradient id="linear-gradient-61" x1="-2176.45" y1="-1872.1" x2="-2171.63" y2="-1876.46" gradientTransform="matrix(1, -0.05, 0.05, 1, 2364.77, 1873.2)" xlink:href="#linear-gradient"/>
    <linearGradient id="linear-gradient-62" x1="-2230.21" y1="-1705.77" x2="-2217.21" y2="-1719.65" gradientTransform="translate(2270.7 1890.2) rotate(2.1)" xlink:href="#linear-gradient"/>
    <linearGradient id="linear-gradient-63" x1="-2269.69" y1="-1535.96" x2="-2250.19" y2="-1560.58" gradientTransform="matrix(0.99, 0.12, -0.12, 0.99, 2175.63, 1900.31)" xlink:href="#linear-gradient"/>
    <linearGradient id="linear-gradient-64" x1="-2293.82" y1="-1362.9" x2="-2269.68" y2="-1399.19" gradientTransform="matrix(0.98, 0.2, -0.2, 0.98, 2079.22, 1901.92)" xlink:href="#linear-gradient"/>
    <linearGradient id="linear-gradient-65" x1="-2303.62" y1="-1189.55" x2="-2276.83" y2="-1238.12" gradientTransform="matrix(0.96, 0.28, -0.28, 0.96, 1983.42, 1897.25)" xlink:href="#linear-gradient"/>
    <linearGradient id="linear-gradient-66" x1="-2298.42" y1="-1014.05" x2="-2271.03" y2="-1075.2" gradientTransform="matrix(0.93, 0.36, -0.36, 0.93, 1888.88, 1882.34)" xlink:href="#linear-gradient"/>
    <linearGradient id="linear-gradient-67" x1="-2277.93" y1="-840.22" x2="-2252.01" y2="-913.88" gradientTransform="translate(1795.3 1860.3) rotate(25.8)" xlink:href="#linear-gradient"/>
    <linearGradient id="linear-gradient-68" x1="-2243.02" y1="-669.89" x2="-2220.63" y2="-755.64" gradientTransform="translate(1703.8 1831.9) rotate(30.6)" xlink:href="#linear-gradient"/>
    <linearGradient id="linear-gradient-69" x1="-2193.16" y1="-501.99" x2="-2176.24" y2="-599.11" gradientTransform="translate(1615.2 1794.5) rotate(35.3)" xlink:href="#linear-gradient"/>
    <linearGradient id="linear-gradient-70" x1="-2128.99" y1="-339.77" x2="-2119.33" y2="-447.2" gradientTransform="translate(1529.4 1750.4) rotate(40.1)" xlink:href="#linear-gradient"/>
    <linearGradient id="linear-gradient-71" x1="-2051.86" y1="-183.05" x2="-2051.07" y2="-299.47" gradientTransform="matrix(0.71, 0.7, -0.7, 0.71, 1448.58, 1699.26)" xlink:href="#linear-gradient"/>
    <linearGradient id="linear-gradient-72" x1="-1961.35" y1="-34.03" x2="-1970.8" y2="-157.86" gradientTransform="matrix(0.65, 0.76, -0.76, 0.65, 1371.73, 1641.62)" xlink:href="#linear-gradient"/>
    <linearGradient id="linear-gradient-73" x1="-1859.13" y1="106.28" x2="-1879.89" y2="-23.18" gradientTransform="matrix(0.58, 0.81, -0.81, 0.58, 1300.14, 1578.45)" xlink:href="#linear-gradient"/>
    <linearGradient id="linear-gradient-74" x1="-1744.45" y1="237.3" x2="-1777.31" y2="104.15" gradientTransform="matrix(0.51, 0.86, -0.86, 0.51, 1233.46, 1508.59)" xlink:href="#linear-gradient"/>
    <linearGradient id="linear-gradient-75" x1="-1619.51" y1="358" x2="-1664.9" y2="223.18" gradientTransform="translate(1173.1 1433.6) rotate(63.8)" xlink:href="#linear-gradient"/>
    <linearGradient id="linear-gradient-76" x1="-1485.16" y1="467.91" x2="-1543.2" y2="333.5" gradientTransform="translate(1119.7 1353.9) rotate(68.6)" xlink:href="#linear-gradient"/>
  </defs>
  <g>
    <g>
      <path class="cls-1" d="M156.7,157.5v-.4L237.4,28.9a.8.8,0,0,1,1.3.9L158.2,157.9a.8.8,0,0,1-1.1.3A1,1,0,0,1,156.7,157.5Z" transform="translate(-5.4 -5.4)"/>
      <path class="cls-2" d="M156.7,157.5c0-.2.1-.3.2-.5L247.8,36c.2-.4.7-.4,1.1-.2a.8.8,0,0,1,.1,1.1L158.1,158a.8.8,0,0,1-1.1.1A.7.7,0,0,1,156.7,157.5Z" transform="translate(-5.4 -5.4)"/>
      <path class="cls-3" d="M156.7,157.5a.8.8,0,0,1,.2-.5L257.5,43.9a.8.8,0,1,1,1.2,1L158.1,158a.8.8,0,0,1-1.1.1A.9.9,0,0,1,156.7,157.5Z" transform="translate(-5.4 -5.4)"/>
      <path class="cls-4" d="M156.7,157.5a.9.9,0,0,1,.3-.6L266.6,52.5a.9.9,0,0,1,1.1.1.8.8,0,0,1,0,1.1L158,158.1a.7.7,0,0,1-1.1-.1A.8.8,0,0,1,156.7,157.5Z" transform="translate(-5.4 -5.4)"/>
      <path class="cls-5" d="M156.7,157.5a.9.9,0,0,1,.3-.6l117.9-95a.8.8,0,0,1,1.1.2.7.7,0,0,1-.1,1L158,158.1a.8.8,0,0,1-1.1-.1C156.8,157.8,156.7,157.7,156.7,157.5Z" transform="translate(-5.4 -5.4)"/>
      <path class="cls-6" d="M156.7,157.5a.6.6,0,0,1,.4-.6L282.4,72a.7.7,0,0,1,1.1.2.9.9,0,0,1-.2,1.1L157.9,158.1a.6.6,0,0,1-1-.2A.5.5,0,0,1,156.7,157.5Z" transform="translate(-5.4 -5.4)"/>
      <path class="cls-7" d="M156.7,157.5a1,1,0,0,1,.4-.7l132-74.2a.7.7,0,0,1,1,.3.8.8,0,0,1-.3,1.1L157.9,158.2a.8.8,0,0,1-1.1-.3Z" transform="translate(-5.4 -5.4)"/>
      <path class="cls-8" d="M156.7,157.5a.8.8,0,0,1,.5-.7l137.6-63a.7.7,0,0,1,1,.4.8.8,0,0,1-.3,1l-137.7,63a.7.7,0,0,1-1-.4C156.8,157.7,156.7,157.6,156.7,157.5Z" transform="translate(-5.4 -5.4)"/>
      <path class="cls-9" d="M156.7,157.5a.8.8,0,0,1,.5-.7l142.4-51.4a.7.7,0,0,1,1,.4.7.7,0,0,1-.5,1L157.8,158.2a.7.7,0,0,1-1-.4A.4.4,0,0,1,156.7,157.5Z" transform="translate(-5.4 -5.4)"/>
      <path class="cls-10" d="M156.7,157.5c0-.3.3-.7.6-.7l146.1-39.5a.8.8,0,0,1,1,.5.8.8,0,0,1-.6,1L157.7,158.3a.8.8,0,0,1-.9-.6Z" transform="translate(-5.4 -5.4)"/>
      <path class="cls-11" d="M156.7,157.5a.8.8,0,0,1,.7-.8l148.9-27.2a.8.8,0,0,1,.9.6.7.7,0,0,1-.6.9l-149,27.3a.9.9,0,0,1-.9-.7Z" transform="translate(-5.4 -5.4)"/>
      <path class="cls-12" d="M156.7,157.5a.8.8,0,0,1,.7-.8l150.7-14.8a.8.8,0,0,1,.8.7c.1.5-.2.8-.7.9L157.6,158.3a1,1,0,0,1-.9-.7Z" transform="translate(-5.4 -5.4)"/>
      <path class="cls-13" d="M156.7,157.5a.9.9,0,0,1,.8-.8l151.4-2.3a.8.8,0,0,1,0,1.6l-151.4,2.3a.9.9,0,0,1-.8-.8Z" transform="translate(-5.4 -5.4)"/>
      <path class="cls-14" d="M156.7,157.5h0a.9.9,0,0,1,.9-.8l151,10.3a.8.8,0,0,1,.7.8.7.7,0,0,1-.8.7l-151-10.2A.8.8,0,0,1,156.7,157.5Z" transform="translate(-5.4 -5.4)"/>
      <path class="cls-15" d="M156.7,157.5h0a1,1,0,0,1,.9-.7l149.7,22.8a.6.6,0,0,1,.6.8.7.7,0,0,1-.9.7L157.4,158.3A.8.8,0,0,1,156.7,157.5Z" transform="translate(-5.4 -5.4)"/>
      <path class="cls-16" d="M156.7,157.5v-.2a.8.8,0,0,1,.9-.6l147.2,35.1a.7.7,0,0,1,.6.9.8.8,0,0,1-.9.6l-147.3-35A.9.9,0,0,1,156.7,157.5Z" transform="translate(-5.4 -5.4)"/>
      <path class="cls-17" d="M156.7,157.5c0-.1,0-.2.1-.2a.7.7,0,0,1,.9-.5l143.9,47.1a.8.8,0,0,1,.5,1,.8.8,0,0,1-1,.5L157.3,158.2A.7.7,0,0,1,156.7,157.5Z" transform="translate(-5.4 -5.4)"/>
      <path class="cls-18" d="M156.7,157.5a.4.4,0,0,1,.1-.3.7.7,0,0,1,1-.4l139.5,58.8a.9.9,0,0,1,.4,1.1.8.8,0,0,1-1,.4L157.2,158.2A.8.8,0,0,1,156.7,157.5Z" transform="translate(-5.4 -5.4)"/>
      <path class="cls-19" d="M156.7,157.5c0-.1.1-.2.1-.4a.9.9,0,0,1,1.1-.3L292,227a.8.8,0,0,1-.7,1.4L157.1,158.2A.8.8,0,0,1,156.7,157.5Z" transform="translate(-5.4 -5.4)"/>
      <path class="cls-20" d="M156.7,157.5l.2-.4a.7.7,0,0,1,1-.3l127.9,81.1a.9.9,0,0,1,.2,1.1.8.8,0,0,1-1.1.2l-127.8-81A1,1,0,0,1,156.7,157.5Z" transform="translate(-5.4 -5.4)"/>
      <path class="cls-21" d="M156.7,157.5c0-.2.1-.3.2-.5a.8.8,0,0,1,1.1-.1l120.7,91.4a.7.7,0,0,1,.1,1,.7.7,0,0,1-1.1.2L157,158.1A.7.7,0,0,1,156.7,157.5Z" transform="translate(-5.4 -5.4)"/>
      <path class="cls-22" d="M156.7,157.5a.8.8,0,0,1,.2-.5.8.8,0,0,1,1.1-.1L270.7,258a.7.7,0,0,1,.1,1.1.8.8,0,0,1-1.1,0L157,158.1A.9.9,0,0,1,156.7,157.5Z" transform="translate(-5.4 -5.4)"/>
      <path class="cls-23" d="M156.7,157.5a.9.9,0,0,1,.3-.6.8.8,0,0,1,1.1.1L262,267a.8.8,0,0,1-1.1,1.1L156.9,158A.8.8,0,0,1,156.7,157.5Z" transform="translate(-5.4 -5.4)"/>
      <path class="cls-24" d="M156.7,157.5a.9.9,0,0,1,.3-.6.8.8,0,0,1,1.1.1l94.5,118.3a.8.8,0,1,1-1.2.9L156.9,158C156.8,157.8,156.7,157.7,156.7,157.5Z" transform="translate(-5.4 -5.4)"/>
      <path class="cls-25" d="M156.7,157.5a.8.8,0,0,1,.4-.6.7.7,0,0,1,1.1.2l84.3,125.6a.7.7,0,0,1-.2,1.1.7.7,0,0,1-1.1-.2L156.9,157.9A.5.5,0,0,1,156.7,157.5Z" transform="translate(-5.4 -5.4)"/>
      <path class="cls-26" d="M156.7,157.5a1,1,0,0,1,.4-.7.9.9,0,0,1,1.1.3l73.7,132.3a.8.8,0,0,1-1.4.7L156.8,157.9Z" transform="translate(-5.4 -5.4)"/>
      <path class="cls-27" d="M156.7,157.5a.8.8,0,0,1,.5-.7.7.7,0,0,1,1,.4l62.5,137.9a.8.8,0,1,1-1.4.6L156.8,157.8C156.8,157.7,156.7,157.6,156.7,157.5Z" transform="translate(-5.4 -5.4)"/>
      <path class="cls-28" d="M156.7,157.5a.8.8,0,0,1,.5-.7.7.7,0,0,1,1,.4l50.9,142.6a.8.8,0,0,1-.5,1c-.4.2-.8-.1-1-.5L156.8,157.8A.4.4,0,0,1,156.7,157.5Z" transform="translate(-5.4 -5.4)"/>
      <path class="cls-29" d="M156.7,157.5c0-.3.3-.7.6-.7s.8.1,1,.5l38.8,146.3a.9.9,0,0,1-.5,1,.9.9,0,0,1-1-.6L156.8,157.7Z" transform="translate(-5.4 -5.4)"/>
      <path class="cls-30" d="M156.7,157.5a.8.8,0,0,1,1.6-.1l26.6,149a.8.8,0,0,1-.6.9.7.7,0,0,1-.9-.6L156.7,157.6Z" transform="translate(-5.4 -5.4)"/>
      <path class="cls-31" d="M156.7,157.5a.8.8,0,0,1,.7-.8.9.9,0,0,1,.9.7l14.2,150.7a.9.9,0,0,1-.7.9,1,1,0,0,1-.9-.7L156.7,157.6Z" transform="translate(-5.4 -5.4)"/>
      <path class="cls-32" d="M156.7,157.5a.8.8,0,0,1,1.6,0L160,308.9h0a.8.8,0,0,1-1.6,0l-1.7-151.4Z" transform="translate(-5.4 -5.4)"/>
      <path class="cls-33" d="M145.9,308.5h0l10.8-151a.8.8,0,0,1,1.6.2L147.4,308.5a.8.8,0,0,1-.8.8A.8.8,0,0,1,145.9,308.5Z" transform="translate(-5.4 -5.4)"/>
      <path class="cls-34" d="M133.4,307.1h0l23.3-149.6a1,1,0,0,1,.9-.7.9.9,0,0,1,.7.9L135,307.2a.8.8,0,0,1-.9.6A.8.8,0,0,1,133.4,307.1Z" transform="translate(-5.4 -5.4)"/>
      <path class="cls-35" d="M121.1,304.6v-.2l35.7-147.1a.8.8,0,0,1,.9-.6,1,1,0,0,1,.6,1L122.6,304.8a.8.8,0,0,1-.9.6A.8.8,0,0,1,121.1,304.6Z" transform="translate(-5.4 -5.4)"/>
      <path class="cls-36" d="M109,301.2c0-.1.1-.2.1-.3l47.7-143.6a.7.7,0,0,1,1-.5.6.6,0,0,1,.4.9L110.6,301.4a.9.9,0,0,1-1,.5A.9.9,0,0,1,109,301.2Z" transform="translate(-5.4 -5.4)"/>
      <path class="cls-37" d="M97.3,296.7a.4.4,0,0,1,.1-.3l59.4-139.2a.8.8,0,0,1,1.4.6L98.8,297a.7.7,0,0,1-1,.4A.8.8,0,0,1,97.3,296.7Z" transform="translate(-5.4 -5.4)"/>
      <path class="cls-38" d="M86,291.3a.4.4,0,0,1,.1-.3l70.7-133.9a.8.8,0,0,1,1.4.8L87.5,291.7a.8.8,0,0,1-1.1.3A.7.7,0,0,1,86,291.3Z" transform="translate(-5.4 -5.4)"/>
      <path class="cls-39" d="M75.2,285a.6.6,0,0,1,.1-.4l81.6-127.5a.6.6,0,0,1,1-.2.7.7,0,0,1,.3,1L76.6,285.4a.8.8,0,0,1-1.1.3A.9.9,0,0,1,75.2,285Z" transform="translate(-5.4 -5.4)"/>
      <path class="cls-40" d="M64.9,277.8a.6.6,0,0,1,.1-.4L156.9,157a.8.8,0,0,1,1.2,1L66.3,278.3a.8.8,0,0,1-1.1.1A.6.6,0,0,1,64.9,277.8Z" transform="translate(-5.4 -5.4)"/>
      <path class="cls-41" d="M55.2,269.8a.8.8,0,0,1,.2-.5L156.9,157a.8.8,0,0,1,1.2,1L56.6,270.3a.8.8,0,0,1-1.1.1A.9.9,0,0,1,55.2,269.8Z" transform="translate(-5.4 -5.4)"/>
      <path class="cls-42" d="M46.3,261a.8.8,0,0,1,.2-.5L157,156.9a.8.8,0,0,1,1.1.1.7.7,0,0,1-.1,1.1L47.6,261.6a.8.8,0,0,1-1.1,0A1.4,1.4,0,0,1,46.3,261Z" transform="translate(-5.4 -5.4)"/>
      <path class="cls-43" d="M38.1,251.5a.9.9,0,0,1,.3-.6l118.6-94a.8.8,0,0,1,1,1.2l-118.6,94a.8.8,0,0,1-1.1-.1C38.1,251.9,38.1,251.7,38.1,251.5Z" transform="translate(-5.4 -5.4)"/>
      <path class="cls-44" d="M30.7,241.4a.8.8,0,0,1,.4-.7l126-83.8a.7.7,0,0,1,1.1.2.9.9,0,0,1-.3,1.1L31.9,242a.7.7,0,0,1-1.1-.2C30.8,241.7,30.7,241.5,30.7,241.4Z" transform="translate(-5.4 -5.4)"/>
      <path class="cls-45" d="M24.2,230.7a.8.8,0,0,1,.4-.7l132.5-73.2a.9.9,0,0,1,1.1.3.8.8,0,0,1-.3,1.1L25.4,231.3a.8.8,0,0,1-1.1-.3A.4.4,0,0,1,24.2,230.7Z" transform="translate(-5.4 -5.4)"/>
      <path class="cls-46" d="M18.6,219.4c0-.3.2-.5.5-.7l138.1-61.9a.8.8,0,1,1,.6,1.4L19.7,220.1a.7.7,0,0,1-1-.3A.6.6,0,0,1,18.6,219.4Z" transform="translate(-5.4 -5.4)"/>
      <path class="cls-47" d="M14,207.8a.8.8,0,0,1,.5-.7l142.7-50.3a.8.8,0,1,1,.6,1.4L15,208.5a.7.7,0,0,1-1-.5Z" transform="translate(-5.4 -5.4)"/>
      <path class="cls-48" d="M10.3,195.8a.8.8,0,0,1,.6-.8l146.4-38.2c.4-.2.8.1,1,.5a1,1,0,0,1-.6,1L11.3,196.5a.7.7,0,0,1-1-.5Z" transform="translate(-5.4 -5.4)"/>
      <path class="cls-49" d="M7.6,183.5a.8.8,0,0,1,.7-.7l149.1-26.1a.8.8,0,0,1,.2,1.6L8.5,184.3a.8.8,0,0,1-.9-.6Z" transform="translate(-5.4 -5.4)"/>
      <path class="cls-50" d="M6,171.1a.8.8,0,0,1,.7-.8l150.7-13.6a.8.8,0,0,1,.2,1.6L6.8,171.9a.8.8,0,0,1-.8-.7Z" transform="translate(-5.4 -5.4)"/>
      <path class="cls-51" d="M5.4,158.6a.8.8,0,0,1,.7-.8l151.4-1.1a.9.9,0,0,1,.8.8h0a.9.9,0,0,1-.8.8L6.1,159.4a.8.8,0,0,1-.7-.8Z" transform="translate(-5.4 -5.4)"/>
      <path class="cls-52" d="M5.8,146h0a.7.7,0,0,1,.8-.7l151,11.4a.8.8,0,1,1-.2,1.6L6.5,146.8A.8.8,0,0,1,5.8,146Z" transform="translate(-5.4 -5.4)"/>
      <path class="cls-53" d="M7.3,133.6h0c0-.5.4-.7.9-.7l149.4,23.9a.8.8,0,1,1-.2,1.6L7.9,134.4A.8.8,0,0,1,7.3,133.6Z" transform="translate(-5.4 -5.4)"/>
      <path class="cls-54" d="M9.8,121.3v-.2a.8.8,0,0,1,.9-.6l147,36.3a.8.8,0,0,1,.6.9.9.9,0,0,1-1,.6L10.3,122C10,122,9.8,121.6,9.8,121.3Z" transform="translate(-5.4 -5.4)"/>
      <path class="cls-55" d="M13.3,109.2V109a.8.8,0,0,1,1-.5l143.5,48.3a.7.7,0,0,1,.4,1,.6.6,0,0,1-.9.4L13.8,110A.8.8,0,0,1,13.3,109.2Z" transform="translate(-5.4 -5.4)"/>
      <path class="cls-56" d="M17.7,97.5v-.3a.8.8,0,0,1,1-.4l139,60a.8.8,0,0,1-.6,1.4l-139-60A.8.8,0,0,1,17.7,97.5Z" transform="translate(-5.4 -5.4)"/>
      <path class="cls-57" d="M23.2,86.2a.4.4,0,0,1,.1-.3.6.6,0,0,1,1-.3l133.6,71.2a.8.8,0,0,1,.3,1.1.9.9,0,0,1-1.1.3L23.6,86.9A.7.7,0,0,1,23.2,86.2Z" transform="translate(-5.4 -5.4)"/>
      <path class="cls-58" d="M29.5,75.4a.8.8,0,0,1,.2-.4.6.6,0,0,1,1-.2l127.2,82.1a.7.7,0,0,1,.3,1,.9.9,0,0,1-1.1.3L29.9,76.1A1,1,0,0,1,29.5,75.4Z" transform="translate(-5.4 -5.4)"/>
      <path class="cls-59" d="M36.8,65.2a.7.7,0,0,1,.1-.5.8.8,0,0,1,1.1-.1l120,92.3a.8.8,0,0,1,.1,1.1.8.8,0,0,1-1.1.1L37.1,65.8A.9.9,0,0,1,36.8,65.2Z" transform="translate(-5.4 -5.4)"/>
      <path class="cls-60" d="M44.8,55.6A1.4,1.4,0,0,1,45,55a.8.8,0,0,1,1.1,0L158,156.9a.8.8,0,0,1-1,1.2L45.1,56.1A.5.5,0,0,1,44.8,55.6Z" transform="translate(-5.4 -5.4)"/>
      <path class="cls-61" d="M53.7,46.6c0-.2,0-.4.2-.5a.8.8,0,0,1,1.1,0L158.1,157a.8.8,0,0,1-1.2,1L53.9,47.2A.7.7,0,0,1,53.7,46.6Z" transform="translate(-5.4 -5.4)"/>
      <path class="cls-62" d="M63.2,38.5a.7.7,0,0,1,.3-.6.8.8,0,0,1,1.1.1l93.5,119a.8.8,0,0,1-1.2,1L63.4,39A.6.6,0,0,1,63.2,38.5Z" transform="translate(-5.4 -5.4)"/>
      <path class="cls-63" d="M73.4,31.2a.8.8,0,0,1,1.4-.5l83.4,126.4a.9.9,0,0,1-.3,1.1.7.7,0,0,1-1-.3L73.5,31.6A.6.6,0,0,1,73.4,31.2Z" transform="translate(-5.4 -5.4)"/>
      <path class="cls-64" d="M84.1,24.7a1,1,0,0,1,.4-.7.8.8,0,0,1,1.1.3l72.6,132.8a.8.8,0,0,1-1.4.8L84.2,25.1A.8.8,0,0,1,84.1,24.7Z" transform="translate(-5.4 -5.4)"/>
      <path class="cls-65" d="M95.3,19.1c0-.3.2-.5.5-.7s.9,0,1,.4l61.4,138.4a.8.8,0,1,1-1.4.6L95.4,19.4Z" transform="translate(-5.4 -5.4)"/>
      <path class="cls-66" d="M107,14.5a.8.8,0,0,1,.5-.7.8.8,0,0,1,1,.5l49.7,142.9a.7.7,0,0,1-.4,1,.7.7,0,0,1-1-.4l-49.7-143A.4.4,0,0,1,107,14.5Z" transform="translate(-5.4 -5.4)"/>
      <path class="cls-67" d="M119,10.9c0-.3.3-.7.6-.7s.8.1,1,.5l37.7,146.6a1,1,0,0,1-.6,1,.8.8,0,0,1-.9-.6L119,11.1Z" transform="translate(-5.4 -5.4)"/>
      <path class="cls-68" d="M131.3,8.3a.9.9,0,0,1,.6-.8.7.7,0,0,1,.9.7l25.5,149.2a.8.8,0,0,1-1.6.2L131.3,8.4Z" transform="translate(-5.4 -5.4)"/>
      <path class="cls-69" d="M143.7,6.7a.8.8,0,0,1,.7-.8.9.9,0,0,1,.9.7l13,150.8a.8.8,0,0,1-1.6.2L143.7,6.8Z" transform="translate(-5.4 -5.4)"/>
      <path class="cls-70" d="M156.3,6.1a.7.7,0,0,1,.7-.7.7.7,0,0,1,.8.7l.5,151.4h0a.8.8,0,0,1-1.6,0L156.3,6.1Z" transform="translate(-5.4 -5.4)"/>
      <path class="cls-71" d="M156.7,157.5h0L168.8,6.6a.8.8,0,0,1,.8-.8c.5.1.8.4.7.9l-12,150.9a.9.9,0,0,1-.9.7A.8.8,0,0,1,156.7,157.5Z" transform="translate(-5.4 -5.4)"/>
      <path class="cls-72" d="M156.7,157.5h0L181.3,8a.6.6,0,0,1,.8-.6.7.7,0,0,1,.7.9L158.3,157.6a.8.8,0,0,1-1.6-.1Z" transform="translate(-5.4 -5.4)"/>
      <path class="cls-73" d="M156.7,157.5v-.2L193.5,10.5a1,1,0,0,1,1-.6.8.8,0,0,1,.6,1L158.3,157.7a.9.9,0,0,1-1,.6A.9.9,0,0,1,156.7,157.5Z" transform="translate(-5.4 -5.4)"/>
      <path class="cls-74" d="M156.7,157.5c0-.1,0-.2.1-.2L205.6,14a.7.7,0,0,1,1-.5.8.8,0,0,1,.5,1L158.2,157.8a.6.6,0,0,1-.9.4A.7.7,0,0,1,156.7,157.5Z" transform="translate(-5.4 -5.4)"/>
      <path class="cls-75" d="M156.7,157.5c0-.1.1-.2.1-.3L217.3,18.4a1,1,0,0,1,1-.4.8.8,0,0,1,.4,1.1L158.2,157.8a.7.7,0,0,1-1,.4A.8.8,0,0,1,156.7,157.5Z" transform="translate(-5.4 -5.4)"/>
      <path class="cls-76" d="M156.7,157.5c0-.1.1-.2.1-.4L228.6,23.9a.8.8,0,0,1,1.1-.3.7.7,0,0,1,.3,1L158.2,157.9a.9.9,0,0,1-1.1.3A1,1,0,0,1,156.7,157.5Z" transform="translate(-5.4 -5.4)"/>
    </g>
    <g>
      <circle cx="157.5" cy="157.5" r="106.6" transform="translate(-70.6 152.1) rotate(-45)"/>
      <path d="M50.1,157.5A107.4,107.4,0,1,1,157.5,264.9,107.5,107.5,0,0,1,50.1,157.5Zm213.2,0A105.8,105.8,0,1,0,157.5,263.3,106,106,0,0,0,263.3,157.5Z" transform="translate(-5.4 -5.4)"/>
    </g>
  </g>
</svg>
