<?xml version="1.0" encoding="utf-8"?>
<!-- Generator: Adobe Illustrator 26.0.1, SVG Export Plug-In . SVG Version: 6.00 Build 0)  -->
<svg version="1.1" id="Modo_de_aislamiento" xmlns="http://www.w3.org/2000/svg" xmlns:xlink="http://www.w3.org/1999/xlink"
	 x="0px" y="0px" viewBox="0 0 169.38 224.53" style="enable-background:new 0 0 169.38 224.53;" xml:space="preserve">
<style type="text/css">
	.st0{fill:#C48C2D;}
</style>
<g>
	<polygon class="st0" points="90.92,124.87 90.98,124.99 90.92,124.81 	"/>
	<g>
		<path class="st0" d="M143.86,82.22c-0.84,2.53-1.85,5.02-3.01,7.42c-0.04,0.07-0.07,0.15-0.11,0.22l-0.07,0.14
			c-0.43,2.39-1.32,4.65-2.65,6.7c-1.34,2.06-3.05,3.8-5.07,5.17c-1.76,1.19-3.7,2.05-5.78,2.56l-11.75,2.92
			c-3.73,0.93-7.26,2.72-10.2,5.2l-5.65,4.76c3.01-0.73,5.97-1.72,8.82-2.94c2-1.49,4.22-2.63,6.61-3.37
			c0.41-0.13,0.83-0.25,1.24-0.35l11.75-2.92c10.96-2.72,17.99-13.56,16.02-24.67L143.86,82.22z"/>
		<path class="st0" d="M138.69,34.62c1.11,2.19,1.77,4.53,1.94,6.97c0.15,2.12-0.08,4.24-0.67,6.29l-3.35,11.63
			c-1.06,3.69-1.27,7.65-0.6,11.43l1.29,7.28c0.87-2.96,1.5-6.01,1.87-9.09c-0.3-2.51-0.17-5.04,0.4-7.51
			c0.09-0.4,0.19-0.79,0.3-1.17l3.35-11.63c3.12-10.85-2.74-22.36-13.35-26.21l-0.82-0.3c1.87,2.1,3.61,4.34,5.16,6.66
			C136.07,30.54,137.57,32.44,138.69,34.62z"/>
		<path class="st0" d="M81.97,3.26c0.75,0,1.51,0.05,2.3,0.1c0.33,0.02,0.67,0.04,1.01,0.06c2.46,0.13,4.82,0.74,7.01,1.81
			c1.91,0.93,3.62,2.18,5.1,3.72l8.4,8.72c2.67,2.77,5.99,4.92,9.6,6.23l6.88,2.49c-2.14-2.24-4.47-4.31-6.94-6.17
			c-2.29-0.99-4.38-2.35-6.21-4.05c-0.3-0.28-0.6-0.57-0.88-0.86l-8.4-8.72c-3.8-3.95-8.91-6.28-14.38-6.56
			C80-0.26,74.63,1.55,70.47,5.05l-0.62,0.52c0.63-0.15,1.28-0.32,1.95-0.49c2.05-0.53,4.18-1.07,6.23-1.25
			c0.23-0.02,0.46-0.07,0.69-0.14C79.67,3.4,80.71,3.26,81.97,3.26z"/>
		<path class="st0" d="M84.21,127.13c-2.46-0.13-4.82-0.74-7.01-1.81c-1.91-0.93-3.62-2.18-5.1-3.72l-8.4-8.72
			c-2.67-2.77-5.99-4.92-9.6-6.23l-6.88-2.5c2.14,2.24,4.47,4.31,6.94,6.17c2.29,0.99,4.38,2.35,6.21,4.05
			c0.3,0.28,0.6,0.57,0.88,0.86l8.4,8.72c3.8,3.95,8.91,6.28,14.38,6.57c0.37,0.02,0.76,0.03,1.13,0.03c5.06,0,9.98-1.8,13.86-5.06
			l0.64-0.54c-2.73,0.56-5.53,0.94-8.32,1.12C89.06,126.9,86.65,127.25,84.21,127.13z"/>
		<path class="st0" d="M30.69,95.7c-1.11-2.19-1.77-4.53-1.94-6.97c-0.15-2.12,0.08-4.24,0.67-6.29l3.35-11.63
			c1.06-3.69,1.27-7.65,0.6-11.43l-1.29-7.28c-0.87,2.96-1.5,6.01-1.87,9.09c0.3,2.51,0.17,5.04-0.4,7.51
			c-0.09,0.4-0.19,0.79-0.3,1.17L26.16,81.5c-3.12,10.85,2.74,22.36,13.35,26.21l0.82,0.3c-1.88-2.1-3.61-4.34-5.16-6.66
			C33.31,99.78,31.8,97.88,30.69,95.7z"/>
		<path class="st0" d="M25.51,48.1c0.84-2.53,1.85-5.02,3.01-7.42c0.04-0.07,0.07-0.15,0.11-0.22l0.07-0.14
			c0.43-2.39,1.32-4.65,2.65-6.7c1.34-2.06,3.05-3.8,5.07-5.17c1.76-1.19,3.7-2.05,5.78-2.56l11.75-2.92
			c3.73-0.93,7.26-2.72,10.2-5.2l5.65-4.76c-3.01,0.73-5.98,1.72-8.82,2.94c-2,1.49-4.22,2.63-6.61,3.37
			c-0.41,0.13-0.83,0.25-1.24,0.35L41.39,22.6c-10.96,2.72-17.99,13.56-16.02,24.67L25.51,48.1z"/>
	</g>
	<g>
		<path class="st0" d="M110.16,15.06c0.04,0.04,0.08,0.07,0.12,0.11l0.06,0.05c1.9,0.98,3.77,2.08,5.55,3.28
			c2.82,1.89,5.49,4.06,7.93,6.43c6.68,6.5,11.65,14.56,14.44,23.39l0.25-0.86c0.54-1.88,0.75-3.82,0.61-5.77
			c-0.04-0.6-0.12-1.2-0.23-1.8c-1.73-3.7-3.83-7.22-6.25-10.47c-1.71-2.29-3.62-4.5-5.67-6.54c-0.07-0.07-0.13-0.13-0.2-0.19
			l-0.15-0.15c-5.42-5.33-11.69-9.53-18.65-12.47c-1.37-0.58-2.77-1.11-4.19-1.59l5.56,5.77C109.6,14.53,109.88,14.8,110.16,15.06z"
			/>
		<path class="st0" d="M126.8,102.95c1.9-0.47,3.68-1.26,5.29-2.35c0.57-0.38,1.13-0.82,1.68-1.3c2.06-2.96,3.87-6.15,5.37-9.46
			l0.08-0.37l0.25-0.5c0.19-0.38,0.37-0.77,0.54-1.15c1.02-2.48,1.87-5.04,2.54-7.62c1.27-4.87,1.91-9.94,1.91-15.04
			c0-3.85-0.37-7.69-1.09-11.43l-2.06,7.14c-0.1,0.35-0.2,0.72-0.28,1.09c-0.09,0.41-0.18,0.83-0.25,1.25
			c0.02,0.66,0.03,1.31,0.03,1.94c0,1.24-0.04,2.51-0.13,3.76l-0.01,0.18l0,0.01l-0.01,0.16c-0.24,3.28-0.77,6.56-1.57,9.72
			c-2.28,8.98-6.81,17.3-13.12,24.15L126.8,102.95z"/>
		<path class="st0" d="M109.46,115.54c-3.06,1.51-6.27,2.74-9.54,3.67c-4.94,1.39-10.06,2.1-15.23,2.1c-4.05,0-8.09-0.44-12.02-1.3
			l0.52,0.54c1.36,1.41,2.93,2.56,4.68,3.41c0.62,0.3,1.27,0.57,1.92,0.79c3.7,0.3,7.43,0.26,11.07-0.11l0.23-0.07l0.14-0.01
			c0.28-0.02,0.57-0.04,0.85-0.06c2.87-0.35,5.75-0.92,8.52-1.69c2.49-0.69,4.97-1.55,7.36-2.56c5.81-2.46,11.16-5.8,15.92-9.95
			l-7.28,1.81c-0.38,0.09-0.77,0.2-1.15,0.32c-0.33,0.1-0.68,0.23-1.09,0.38C112.77,113.8,111.12,114.72,109.46,115.54z"/>
		<path class="st0" d="M59.33,115.48c-0.21-0.2-0.43-0.39-0.65-0.57c-1.79-0.94-3.53-1.98-5.19-3.09c-2.82-1.89-5.49-4.06-7.93-6.43
			C38.88,98.89,33.91,90.83,31.13,82l-0.25,0.86c-0.54,1.88-0.75,3.82-0.61,5.77c0.04,0.6,0.12,1.2,0.23,1.8
			c1.72,3.7,3.83,7.22,6.25,10.47c1.71,2.29,3.62,4.49,5.67,6.54c0.07,0.07,0.13,0.13,0.2,0.19l0.15,0.15
			c5.42,5.33,11.69,9.53,18.65,12.47c1.32,0.56,2.67,1.07,4.03,1.53l-5.29-5.49C59.89,116.01,59.61,115.74,59.33,115.48z"/>
		<path class="st0" d="M28.05,69.45c0.1-0.35,0.2-0.72,0.28-1.09c0.09-0.41,0.18-0.84,0.25-1.25c-0.02-0.66-0.03-1.31-0.03-1.94
			c0-1.25,0.04-2.51,0.13-3.76l0.01-0.18l0-0.01l0.01-0.16c0.24-3.28,0.77-6.55,1.57-9.72c2.28-8.98,6.81-17.3,13.12-24.16
			l-0.82,0.2c-1.9,0.47-3.68,1.26-5.29,2.35c-0.57,0.38-1.13,0.82-1.68,1.3c-2.06,2.96-3.87,6.15-5.37,9.46l-0.08,0.37l-0.25,0.49
			c-0.19,0.38-0.37,0.77-0.54,1.15c-1.02,2.48-1.87,5.04-2.54,7.62c-1.27,4.87-1.91,9.94-1.91,15.04c0,3.85,0.37,7.69,1.09,11.43
			L28.05,69.45z"/>
		<path class="st0" d="M96.58,10.28L96.31,10c-1.36-1.41-2.93-2.56-4.68-3.41c-0.92-0.45-1.88-0.81-2.86-1.08
			c-1.36-0.09-2.73-0.14-4.08-0.14c-2.33,0-4.68,0.14-6.98,0.4c-3.01,0.35-6.02,0.93-8.93,1.74c-2.5,0.69-4.97,1.55-7.36,2.56
			c-5.81,2.46-11.16,5.8-15.92,9.95l7.28-1.81c0.38-0.09,0.77-0.2,1.15-0.32c0.33-0.1,0.68-0.23,1.09-0.38
			c1.58-0.99,3.23-1.91,4.9-2.73c3.06-1.51,6.27-2.74,9.54-3.67c4.94-1.39,10.06-2.1,15.23-2.1C88.69,9.01,92.68,9.44,96.58,10.28z"
			/>
	</g>
	<g>
		<path class="st0" d="M41.75,218.78c0.55-1.23,0.55-2.31,0.01-3.28c-0.48-0.89-1.27-1.39-2.34-1.48c-0.59-0.05-1.19-0.05-1.77-0.05
			c-0.25,0-0.5,0-0.75-0.01h-0.36l-0.06,0.12c-0.02,0.03-0.04,0.07-0.04,0.13v9.89c0,0.04,0,0.08,0.01,0.12
			c0,0.02,0.01,0.05,0.01,0.07v0.06l0.11,0.11h1.54v-2.92l0.73-0.23l0.02,0.08c0.12,0.54,0.29,0.98,0.54,1.37
			c0.55,0.86,1.28,1.38,2.23,1.59c0.08,0.02,0.17,0.03,0.26,0.04l0.27,0.03v-1.65l-0.11-0.03c-0.27-0.07-0.55-0.17-0.77-0.35
			c-0.54-0.46-0.81-1.06-0.82-1.82c0-0.09,0.03-0.14,0.11-0.23C41.12,219.84,41.51,219.34,41.75,218.78z M38.14,215.68l0.94,0
			c0.23-0.01,0.44,0.05,0.68,0.15c0.45,0.19,0.68,0.56,0.71,1.14c0.03,0.55-0.16,1.08-0.58,1.62l0,0c-0.38,0.52-0.94,0.89-1.75,1.15
			V215.68z"/>
		<path class="st0" d="M46.26,224.41h0.14h0.25c0.75-0.03,1.5-0.04,2.23-0.06h1.93c0.11,0,0.22-0.01,0.33-0.03l0.12-0.02v-1.6
			l-0.14,0c-0.55-0.01-1.1-0.02-1.65-0.02c-0.51,0-1.02-0.01-1.54-0.02c0,0,0,0,0,0c0-0.26,0-0.52-0.01-0.78
			c0-0.27-0.01-0.54-0.01-0.8c0-0.26,0.11-0.47,0.34-0.66c0.32-0.28,0.71-0.44,1.2-0.5c0.1-0.01,0.19-0.02,0.29-0.03
			c0.09-0.01,0.19-0.02,0.28-0.03l0.13-0.01v-1.62l-0.13-0.01c-0.68-0.06-1.35,0.07-2.11,0.41v-2.94c0.05,0,0.11,0,0.15-0.01
			c0.95,0,1.89-0.01,2.82-0.03c0.07,0,0.15-0.01,0.26-0.03l0.12-0.02v-1.57h-5.01V224.41z"/>
		<path class="st0" d="M57.55,215.74L57.55,215.74c0.37-0.28,0.65-0.27,0.97,0.04c0.06,0.06,0.13,0.13,0.15,0.16
			c0.05,0.1,0.11,0.2,0.16,0.29c0.06,0.1,0.11,0.19,0.14,0.26l0.08,0.16l1.33-1.14l-0.05-0.1c-0.41-0.88-1.26-1.45-2.22-1.5
			c-0.94-0.04-1.79,0.42-2.28,1.24c-0.62,1.01-0.55,2.41,0.15,3.32c0.23,0.3,0.48,0.55,0.73,0.79c0.11,0.11,0.22,0.22,0.33,0.33
			c0.12,0.12,0.25,0.24,0.39,0.36c0.16,0.14,0.32,0.29,0.48,0.46c0.22,0.2,0.38,0.39,0.5,0.59c0.19,0.27,0.25,0.67,0.16,1.03
			c-0.06,0.24-0.23,0.58-0.65,0.78c-0.1,0.05-0.2,0.06-0.31,0.03c-0.23-0.07-0.42-0.19-0.56-0.38c-0.06-0.09-0.12-0.19-0.17-0.29
			c-0.06-0.11-0.12-0.22-0.19-0.32l-0.1-0.14l-0.12,0.12c-0.01,0.01-0.02,0.02-0.03,0.02c-0.02,0.01-0.04,0.03-0.05,0.04
			c-0.31,0.25-0.62,0.54-1,0.89l-0.08,0.08l0.06,0.1c0.51,0.8,1.05,1.25,1.76,1.46c0.22,0.05,0.45,0.1,0.68,0.1
			c0.17,0,0.33-0.03,0.49-0.09c1.39-0.51,2.08-1.58,1.98-3.11c-0.06-0.69-0.39-1.32-1.03-1.92c-0.32-0.34-0.66-0.66-0.99-0.97
			c-0.17-0.16-0.33-0.31-0.5-0.47c-0.18-0.17-0.34-0.36-0.47-0.53C56.99,216.99,57.04,216.12,57.55,215.74z"/>
		<path class="st0" d="M64.93,213.97l-0.42,0v10.46h1.68v-10.38l-0.12-0.02C65.68,213.96,65.3,213.97,64.93,213.97z"/>
		<path class="st0" d="M76.02,216.89c0-0.2-0.02-0.37-0.06-0.53l0,0c-0.39-1.38-1.64-2.34-3.1-2.39c-0.58-0.01-1.17-0.01-1.75-0.01
			c-0.14,0-0.27,0.01-0.41,0.03L70.57,214v10.4h0.14c0.11,0,0.21,0.01,0.31,0.01c0.1,0.01,0.19,0.01,0.29,0.01
			c0.55,0,1.09-0.01,1.61-0.04c1.24-0.06,2.17-0.64,2.78-1.72c0.23-0.42,0.34-0.81,0.34-1.2c-0.01-0.76-0.01-1.53-0.01-2.29
			C76.03,218.42,76.03,217.66,76.02,216.89z M74.37,221.17c0.01,0.71-0.48,1.27-0.98,1.46l0,0c-0.33,0.13-0.71,0.17-1.14,0.15v-7.2
			c0.09,0,0.17,0,0.25,0.01l0.09,0.01c0.33,0.03,0.65,0.05,0.93,0.21c0.58,0.32,0.85,0.77,0.84,1.37l0,0.99
			C74.35,219.16,74.34,220.17,74.37,221.17z"/>
		<path class="st0" d="M80.23,224.41h0.14h0.25c0.75-0.03,1.5-0.04,2.23-0.06h1.93c0.11,0,0.22-0.01,0.33-0.03l0.12-0.02v-1.6
			l-0.14,0c-0.55-0.01-1.1-0.02-1.65-0.02c-0.51,0-1.02-0.01-1.54-0.02c0,0,0,0,0,0c0-0.26,0-0.52-0.01-0.78
			c0-0.27-0.01-0.54-0.01-0.8c0-0.26,0.11-0.47,0.34-0.66c0.32-0.28,0.71-0.44,1.2-0.5c0.1-0.01,0.19-0.02,0.29-0.03
			c0.09-0.01,0.19-0.02,0.28-0.03l0.13-0.01v-1.62l-0.13-0.01c-0.67-0.06-1.35,0.07-2.11,0.41v-2.94c0.06,0,0.11,0,0.15-0.01
			c0.95,0,1.89-0.01,2.82-0.03c0.07,0,0.15-0.01,0.26-0.03l0.12-0.02v-1.57h-5.01V224.41z"/>
		<path class="st0" d="M93.97,221.66c-0.06-0.03-0.1-0.06-0.16-0.09c-0.45-0.29-0.81-0.7-1.19-1.34c-0.59-0.95-0.94-2.01-1.18-2.83
			c-0.23-0.83-0.48-1.8-0.4-2.81v-0.23c0-0.07-0.01-0.15-0.03-0.24l-0.03-0.11h-1.65l0,0.55c0.01,0.58,0.03,1.15,0.03,1.73
			c0.01,2.54,0.01,5.09,0.01,7.63c0,0.11,0,0.23,0.02,0.35l0.02,0.13h1.65v-3.48c0.38,0.66,0.78,1.17,1.24,1.6
			c0.52,0.49,1.04,0.79,1.58,0.92l0.08,0.03c0,0.12,0,0.24,0.01,0.36v0.55l0.12,0.02c0.17,0.02,0.41,0.04,0.66,0.04
			c0.33,0,0.66-0.02,0.79-0.07l0.1-0.03v-10.3h-1.67V221.66z"/>
		<path class="st0" d="M104.94,222.34c-0.16-0.16-0.32-0.32-0.48-0.47l-0.11-0.11l-0.1,0.11c-0.06,0.07-0.12,0.14-0.18,0.21
			c-0.09,0.11-0.19,0.23-0.29,0.32c-0.24,0.22-0.62,0.46-1.08,0.36c-0.65-0.13-1.19-0.8-1.18-1.46c0.01-1.38,0.01-2.78,0-4.18
			c-0.01-0.5,0.17-0.9,0.55-1.23c0.27-0.24,0.53-0.36,0.8-0.34c0.42,0.01,0.77,0.18,1.04,0.5c0.1,0.1,0.18,0.2,0.26,0.31l0.17,0.22
			l1.18-1.18l-0.05-0.09c-0.02-0.03-0.05-0.1-0.1-0.17c-0.45-0.58-1.02-0.96-1.68-1.14c-0.36-0.11-0.74-0.2-1.13-0.12
			c-1.06,0.2-1.86,0.78-2.35,1.73c-0.23,0.42-0.34,0.82-0.34,1.22v4.7c0,0.21,0.03,0.41,0.09,0.59c0.22,0.79,0.67,1.41,1.34,1.84
			c0.53,0.35,1.04,0.52,1.55,0.52c0.13,0,0.26-0.01,0.39-0.03c0.71-0.1,1.35-0.42,1.89-0.95c0.07-0.08,0.13-0.16,0.2-0.24
			c0.05-0.07,0.1-0.13,0.15-0.19l0.09-0.1l-0.1-0.1C105.28,222.67,105.11,222.5,104.94,222.34z"/>
		<path class="st0" d="M110.08,213.97l-0.42,0v10.46h1.68v-10.38l-0.12-0.02C110.83,213.96,110.45,213.97,110.08,213.97z"/>
		<path class="st0" d="M119.45,214.11l-0.02-0.12h-2.09l-0.03,0.1c-0.02,0.07-1.81,9.91-1.75,10.24l0.02,0.12h1.6l0.02-0.12
			c0.07-0.33,0.12-0.64,0.17-0.94c0.29-0.04,1.2-0.06,1.67-0.02c0.05,0.3,0.1,0.61,0.16,0.94l0.02,0.12h1.68l-0.02-0.16
			C120.41,220.86,119.93,217.48,119.45,214.11z M118.83,221.65h-1.15c0.21-1.21,0.42-2.41,0.63-3.61l0.12,0.81
			C118.56,219.78,118.69,220.71,118.83,221.65z"/>
		<path class="st0" d="M126.65,222.71l0.03-8.72h-1.6l-0.03,0.11c-0.08,0.33-0.12,9.73-0.05,10.16l0.02,0.12h4.95v-1.67H126.65z"/>
	</g>
	<g>
		<path class="st0" d="M98.3,75.91c-0.15-0.15-0.39-0.15-0.54,0l-6.74,6.8c-0.15,0.15-0.15,0.38,0,0.53l2.33,2.34
			c0.15,0.15,0.39,0.15,0.53,0l6.79-6.77c0.15-0.15,0.15-0.39,0-0.53L98.3,75.91z"/>
		<path class="st0" d="M87.58,97.44c-0.52-0.83-0.79-1.79-0.79-2.76V42.54l22.17,22.17l-6.21,6.21c-0.15,0.15-0.15,0.39,0,0.53
			l2.38,2.38c0.15,0.15,0.39,0.15,0.53,0l8.85-8.85c0.08-0.08,0.11-0.18,0.11-0.27c0-0.1-0.03-0.2-0.11-0.27L87.6,37.53l3.31-3.31
			c0.42-0.42,0.42-1.11,0-1.53l-1.38-1.38c-0.42-0.42-1.11-0.42-1.53,0l-3.31,3.31l-3.31-3.31c-0.42-0.42-1.11-0.42-1.53,0
			l-1.38,1.38c-0.42,0.42-0.42,1.11,0,1.53l3.31,3.31L54.87,64.44c-0.08,0.08-0.11,0.17-0.11,0.27c0,0.1,0.03,0.2,0.11,0.27
			l8.85,8.85c0.15,0.15,0.39,0.15,0.53,0l2.38-2.38c0.15-0.15,0.15-0.39,0-0.53l-6.21-6.21l22.17-22.17v52.14
			c0,0.98-0.28,1.93-0.79,2.76l-2.85,4.75c-0.43,0.72-0.21,1.65,0.5,2.1l0.83,0.52c0.73,0.46,1.69,0.23,2.14-0.51l2.28-3.75
			l2.28,3.75c0.45,0.74,1.41,0.96,2.14,0.51l0.83-0.52c0.71-0.45,0.93-1.38,0.5-2.1L87.58,97.44z"/>
		<path class="st0" d="M102.73,51.11l2.38,2.38c0.15,0.15,0.39,0.15,0.53,0l6.61-6.61c0.15-0.15,0.15-0.39,0-0.53l-2.38-2.38
			c-0.15-0.15-0.39-0.15-0.53,0l-6.61,6.61C102.58,50.72,102.58,50.96,102.73,51.11z"/>
		<path class="st0" d="M99.31,47.69c0.15,0.15,0.39,0.15,0.53,0l6.61-6.61c0.15-0.15,0.15-0.39,0-0.53l-2.38-2.38
			c-0.15-0.15-0.39-0.15-0.53,0l-6.61,6.61c-0.15,0.15-0.15,0.39,0,0.53L99.31,47.69z"/>
		<path class="st0" d="M119.08,89.37L94.42,64.71l6.24-6.24c0.15-0.15,0.15-0.39,0-0.53l-2.38-2.38c-0.15-0.15-0.39-0.15-0.53,0
			l-8.88,8.88c-0.08,0.08-0.11,0.17-0.11,0.27c0,0.1,0.03,0.2,0.11,0.27l27.3,27.3c0.15,0.15,0.39,0.15,0.53,0l2.38-2.38
			C119.23,89.76,119.23,89.52,119.08,89.37z"/>
		<path class="st0" d="M71.61,75.91c-0.15-0.15-0.39-0.15-0.54,0l-2.38,2.38c-0.15,0.15-0.15,0.39,0,0.53l6.79,6.77
			c0.15,0.15,0.39,0.15,0.53,0l2.33-2.34c0.15-0.15,0.15-0.38,0-0.53L71.61,75.91z"/>
		<path class="st0" d="M63.73,53.49c0.15,0.15,0.39,0.15,0.53,0l2.38-2.38c0.15-0.15,0.15-0.39,0-0.53l-6.61-6.61
			c-0.15-0.15-0.39-0.15-0.53,0l-2.38,2.38c-0.15,0.15-0.15,0.39,0,0.53L63.73,53.49z"/>
		<path class="st0" d="M69.53,47.69c0.15,0.15,0.39,0.15,0.53,0l2.38-2.38c0.15-0.15,0.15-0.39,0-0.53l-6.61-6.61
			c-0.15-0.15-0.39-0.15-0.53,0l-2.38,2.38c-0.15,0.15-0.15,0.39,0,0.53L69.53,47.69z"/>
		<path class="st0" d="M80.61,64.71c0-0.1-0.03-0.2-0.11-0.27l-8.88-8.88c-0.15-0.15-0.39-0.15-0.53,0l-2.38,2.38
			c-0.15,0.15-0.15,0.39,0,0.53l6.24,6.24L50.3,89.37c-0.15,0.15-0.15,0.39,0,0.53l2.38,2.38c0.15,0.15,0.39,0.15,0.53,0l27.3-27.3
			C80.58,64.91,80.61,64.81,80.61,64.71z"/>
	</g>
	<g>
		<path class="st0" d="M125.16,164.69c-3.24-2.89-5.1-6.9-5.1-11.01c0-0.95-0.95-1.73-2.11-1.73h-5.22v34.48l-15.88-34.48h-8.35
			v49.31h5.51c1,0,1.81-0.66,1.81-1.47v-33.04l14.45,31.47c0.84,1.84,2.87,3.03,5.15,3.03h4.62V168.6l7.53,6.71l4.75-4.23
			L125.16,164.69z"/>
		<path class="st0" d="M68.85,151.95h-3.53v35.42c0,2.13-0.88,4.02-2.56,5.48c-1.63,1.45-3.62,2.19-5.89,2.19
			c-2.31,0-4.3-0.74-5.92-2.21c-1.65-1.43-2.53-3.33-2.53-5.45v-33c0-1.33-1.29-2.42-2.88-2.42H41.1v35.42
			c0,3.78,1.53,7.07,4.56,9.78c3.09,2.73,6.86,4.11,11.21,4.11c4.35,0,8.11-1.38,11.18-4.12c3.05-2.72,4.6-6.01,4.6-9.78v-27.59
			l5.2,4.63l4.75-4.23l-6.08-5.41C74.51,152.98,71.71,151.95,68.85,151.95z"/>
		<path class="st0" d="M154.78,153.66c-0.27-0.99-1.35-1.71-2.56-1.71h-6.43l-13.21,49.31h7.5l9.96-37.24l4.91,18.43
			c0.57,2.14-0.15,4.43-1.88,5.97l-4.58,4.08l5.02,4.47l4.27-3.8l3.2,10.93c0.52,1.79,2.39,3.04,4.53,3.04h3.88L154.78,153.66z"/>
		<path class="st0" d="M23.9,179.25c2.52-1.21,4.56-2.91,6.06-5.06c1.5-2.19,2.26-4.61,2.26-7.17v-1.21c0-3.77-1.53-7.05-4.56-9.74
			c-3.09-2.73-6.87-4.12-11.22-4.12H2.47c-1.35,0-2.45,0.91-2.45,2.04l0,45.52c-0.13,3.97,0.58,5.86,1.2,6.74
			c0.3,0.43,0.86,0.61,1.36,0.46l6.77-3.31c-1.41-2.15-2.01-5.83-2.01-7.55v-14.93h7.48l9.67,18.33c0.65,1.22,2.08,2.02,3.64,2.02
			h5.46l-11.27-21.26L23.9,179.25z M7.34,174.69v-16.55h9.11c2.28,0,4.27,0.74,5.91,2.2c1.66,1.48,2.54,3.37,2.54,5.47v1.21
			c0,2.1-0.88,3.99-2.54,5.47c-1.64,1.46-3.63,2.2-5.91,2.2H7.34z"/>
	</g>
</g>
</svg>
