<svg width="128" height="128" viewBox="0 0 128 128" fill="none" xmlns="http://www.w3.org/2000/svg">
<rect y="64.0447" width="90.0453" height="90.0453" rx="37" transform="rotate(-45 0 64.0447)" fill="#000466" fill-opacity="0.69"/>
<path d="M90.6138 81.6738C90.0408 81.2074 89.3064 80.9858 88.5704 81.0572C87.8191 80.9782 87.0671 81.1999 86.4795 81.6738L75.1695 92.8668V60.0941L86.4795 71.2397C87.0624 71.7259 87.8132 71.9643 88.5704 71.9037C89.3123 71.9568 90.0455 71.7185 90.6138 71.2397L107.864 54.213C108.498 53.633 108.904 52.8461 109.008 51.9941C109.113 51.142 108.909 50.2807 108.434 49.5651C108.227 49.2263 107.948 48.9362 107.618 48.715C107.287 48.4938 106.913 48.3465 106.52 48.2835C106.127 48.2204 105.726 48.2429 105.342 48.3495C104.959 48.4562 104.603 48.6443 104.3 48.9011L88.5704 64.4575L74.5517 50.656C72.9835 49.0908 72.0331 48 70.0848 48C68.7362 48 67.4429 48.5346 66.4893 49.4863C65.5357 50.4381 65 51.7288 65 53.0748V99.6015C64.9999 100.952 65.5341 102.248 66.4864 103.207C67.4386 104.166 68.7318 104.711 70.0848 104.724C70.84 104.708 71.5829 104.53 72.2634 104.203C72.9439 103.876 73.546 103.406 74.029 102.827L88.5704 88.5034L104.3 104.012C104.597 104.279 104.949 104.477 105.332 104.592C105.714 104.707 106.118 104.736 106.513 104.677C106.908 104.618 107.285 104.473 107.617 104.251C107.949 104.03 108.228 103.738 108.434 103.396C108.913 102.673 109.118 101.804 109.014 100.944C108.909 100.083 108.502 99.2884 107.864 98.7004L90.6138 81.6738Z" fill="#C48C2D"/>
<path d="M61.4548 27.3547C61.4802 26.8034 61.3675 26.2546 61.1269 25.7577C60.8862 25.2608 60.5253 24.8317 60.0767 24.509L36.0311 9.94867C35.7096 9.71324 35.358 9.52183 34.9856 9.37954L34.7005 9.28468H34.5579L33.7976 9.09497H33.1323C32.4583 9.09497 31.7909 9.22747 31.1682 9.48488C30.5456 9.7423 29.9798 10.1196 29.5032 10.5952C29.0266 11.0709 28.6486 11.6355 28.3907 12.257C28.1327 12.8785 28 13.5445 28 14.2172V60.744C28.1226 62.0113 28.7138 63.1877 29.6582 64.0436C30.6027 64.8996 31.8328 65.3739 33.1085 65.3739C34.3843 65.3739 35.6143 64.8996 36.5588 64.0436C37.5032 63.1877 38.0944 62.0113 38.217 60.744V47.5116L52.4258 64.7279C53.0371 65.3631 53.8762 65.73 54.7584 65.7478C55.6407 65.7656 56.4939 65.4328 57.1304 64.8227C57.7669 64.2127 58.1345 63.3753 58.1523 62.4947C58.1701 61.6142 57.8367 60.7626 57.2255 60.1274L40.8307 40.2077L40.5931 40.018L59.8866 30.3901C60.4065 30.0814 60.8291 29.6332 61.1063 29.0966C61.3836 28.5599 61.5043 27.9564 61.4548 27.3547ZM38.217 19.0074L51.5704 27.1176L38.217 33.7575V19.0074Z" fill="#C48C2D"/>
</svg>
