<?xml version="1.0" encoding="utf-8"?>
<!-- Generator: Adobe Illustrator 26.0.1, SVG Export Plug-In . SVG Version: 6.00 Build 0)  -->
<svg version="1.1" id="Modo_de_aislamiento" xmlns="http://www.w3.org/2000/svg" xmlns:xlink="http://www.w3.org/1999/xlink"
	 x="0px" y="0px" viewBox="0 0 119.57 130.55" style="enable-background:new 0 0 119.57 130.55;" xml:space="preserve">
<style type="text/css">
	.st0{fill:#C48C2D;}
</style>
<g>
	<polygon class="st0" points="66.02,124.87 66.08,124.99 66.01,124.81 	"/>
	<g>
		<path class="st0" d="M118.96,82.22c-0.84,2.53-1.85,5.02-3.01,7.42c-0.04,0.07-0.07,0.15-0.11,0.22l-0.07,0.14
			c-0.43,2.39-1.32,4.65-2.65,6.7c-1.34,2.06-3.05,3.8-5.07,5.17c-1.76,1.19-3.7,2.05-5.78,2.56l-11.75,2.92
			c-3.73,0.93-7.26,2.72-10.2,5.2l-5.65,4.76c3.01-0.73,5.97-1.72,8.82-2.94c2-1.49,4.22-2.63,6.61-3.37
			c0.41-0.13,0.83-0.25,1.24-0.35l11.75-2.92c10.96-2.72,17.99-13.56,16.02-24.67L118.96,82.22z"/>
		<path class="st0" d="M113.78,34.62c1.11,2.19,1.77,4.53,1.94,6.97c0.15,2.12-0.08,4.24-0.67,6.29l-3.35,11.63
			c-1.06,3.69-1.27,7.65-0.6,11.43l1.29,7.28c0.87-2.96,1.5-6.01,1.87-9.09c-0.3-2.51-0.17-5.04,0.4-7.51
			c0.09-0.4,0.19-0.79,0.3-1.17l3.35-11.63c3.12-10.85-2.74-22.36-13.35-26.21l-0.82-0.3c1.87,2.1,3.61,4.34,5.16,6.66
			C111.16,30.54,112.67,32.44,113.78,34.62z"/>
		<path class="st0" d="M57.07,3.26c0.75,0,1.51,0.05,2.3,0.1c0.33,0.02,0.67,0.04,1.01,0.06c2.46,0.13,4.82,0.74,7.01,1.81
			c1.91,0.93,3.62,2.18,5.1,3.72l8.4,8.72c2.67,2.77,5.99,4.92,9.6,6.23l6.88,2.49c-2.14-2.24-4.47-4.31-6.94-6.17
			c-2.29-0.99-4.38-2.35-6.21-4.05c-0.3-0.28-0.6-0.57-0.88-0.86l-8.4-8.72c-3.8-3.95-8.91-6.28-14.38-6.56
			C55.1-0.26,49.73,1.55,45.56,5.05l-0.62,0.52c0.63-0.15,1.28-0.32,1.95-0.49c2.05-0.53,4.18-1.07,6.23-1.25
			c0.23-0.02,0.46-0.07,0.69-0.14C54.77,3.4,55.81,3.26,57.07,3.26z"/>
		<path class="st0" d="M59.3,127.13c-2.46-0.13-4.82-0.74-7.01-1.81c-1.91-0.93-3.62-2.18-5.1-3.72l-8.4-8.72
			c-2.67-2.77-5.99-4.92-9.6-6.23l-6.88-2.5c2.14,2.24,4.47,4.31,6.94,6.17c2.29,0.99,4.38,2.35,6.21,4.05
			c0.3,0.28,0.6,0.57,0.88,0.86l8.4,8.72c3.8,3.95,8.91,6.28,14.38,6.57c0.37,0.02,0.76,0.03,1.13,0.03c5.06,0,9.98-1.8,13.86-5.06
			l0.64-0.54c-2.73,0.56-5.53,0.94-8.32,1.12C64.16,126.9,61.75,127.25,59.3,127.13z"/>
		<path class="st0" d="M5.79,95.7c-1.11-2.19-1.77-4.53-1.94-6.97c-0.15-2.12,0.08-4.24,0.67-6.29l3.35-11.63
			c1.06-3.69,1.27-7.65,0.6-11.43L7.18,52.1c-0.87,2.96-1.5,6.01-1.87,9.09c0.3,2.51,0.17,5.04-0.4,7.51
			c-0.09,0.4-0.19,0.79-0.3,1.17L1.26,81.5C-1.87,92.35,4,103.86,14.61,107.71l0.82,0.3c-1.88-2.1-3.61-4.34-5.16-6.66
			C8.41,99.78,6.9,97.88,5.79,95.7z"/>
		<path class="st0" d="M0.61,48.1c0.84-2.53,1.85-5.02,3.01-7.42c0.04-0.07,0.07-0.15,0.11-0.22l0.07-0.14
			c0.43-2.39,1.32-4.65,2.65-6.7c1.34-2.06,3.05-3.8,5.07-5.17c1.76-1.19,3.7-2.05,5.78-2.56l11.75-2.92
			c3.73-0.93,7.26-2.72,10.2-5.2l5.65-4.76c-3.01,0.73-5.98,1.72-8.82,2.94c-2,1.49-4.22,2.63-6.61,3.37
			c-0.41,0.13-0.83,0.25-1.24,0.35L16.49,22.6C5.53,25.32-1.51,36.16,0.46,47.27L0.61,48.1z"/>
	</g>
	<g>
		<path class="st0" d="M85.25,15.06c0.04,0.04,0.08,0.07,0.12,0.11l0.06,0.05c1.9,0.98,3.77,2.08,5.55,3.28
			c2.82,1.89,5.49,4.06,7.93,6.43c6.68,6.5,11.65,14.56,14.44,23.39l0.25-0.86c0.54-1.88,0.75-3.82,0.61-5.77
			c-0.04-0.6-0.12-1.2-0.23-1.8c-1.73-3.7-3.83-7.22-6.25-10.47c-1.71-2.29-3.62-4.5-5.67-6.54c-0.07-0.07-0.13-0.13-0.2-0.19
			l-0.15-0.15c-5.42-5.33-11.69-9.53-18.65-12.47c-1.37-0.58-2.77-1.11-4.19-1.59l5.56,5.77C84.7,14.53,84.97,14.8,85.25,15.06z"/>
		<path class="st0" d="M101.9,102.95c1.9-0.47,3.68-1.26,5.29-2.35c0.57-0.38,1.13-0.82,1.68-1.3c2.06-2.96,3.87-6.15,5.37-9.46
			l0.08-0.37l0.25-0.5c0.19-0.38,0.37-0.77,0.54-1.15c1.02-2.48,1.87-5.04,2.54-7.62c1.27-4.87,1.91-9.94,1.91-15.04
			c0-3.85-0.37-7.69-1.09-11.43l-2.06,7.14c-0.1,0.35-0.2,0.72-0.28,1.09c-0.09,0.41-0.18,0.83-0.25,1.25
			c0.02,0.66,0.03,1.31,0.03,1.94c0,1.24-0.04,2.51-0.13,3.76l-0.01,0.18l0,0.01l-0.01,0.16c-0.24,3.28-0.77,6.56-1.57,9.72
			c-2.28,8.98-6.81,17.3-13.12,24.15L101.9,102.95z"/>
		<path class="st0" d="M84.56,115.54c-3.06,1.51-6.27,2.74-9.54,3.67c-4.94,1.39-10.06,2.1-15.23,2.1c-4.05,0-8.09-0.44-12.02-1.3
			l0.52,0.54c1.36,1.41,2.93,2.56,4.68,3.41c0.62,0.3,1.27,0.57,1.92,0.79c3.7,0.3,7.43,0.26,11.07-0.11l0.23-0.07l0.14-0.01
			c0.28-0.02,0.57-0.04,0.85-0.06c2.87-0.35,5.75-0.92,8.52-1.69c2.49-0.69,4.97-1.55,7.36-2.56c5.81-2.46,11.16-5.8,15.92-9.95
			l-7.28,1.81c-0.38,0.09-0.77,0.2-1.15,0.32c-0.33,0.1-0.68,0.23-1.09,0.38C87.87,113.8,86.22,114.72,84.56,115.54z"/>
		<path class="st0" d="M34.43,115.48c-0.21-0.2-0.43-0.39-0.65-0.57c-1.79-0.94-3.53-1.98-5.19-3.09c-2.82-1.89-5.49-4.06-7.93-6.43
			C13.98,98.89,9.01,90.83,6.22,82l-0.25,0.86c-0.54,1.88-0.75,3.82-0.61,5.77c0.04,0.6,0.12,1.2,0.23,1.8
			c1.72,3.7,3.83,7.22,6.25,10.47c1.71,2.29,3.62,4.49,5.67,6.54c0.07,0.07,0.13,0.13,0.2,0.19l0.15,0.15
			c5.42,5.33,11.69,9.53,18.65,12.47c1.32,0.56,2.67,1.07,4.03,1.53l-5.29-5.49C34.98,116.01,34.71,115.74,34.43,115.48z"/>
		<path class="st0" d="M3.15,69.45c0.1-0.35,0.2-0.72,0.28-1.09c0.09-0.41,0.18-0.84,0.25-1.25c-0.02-0.66-0.03-1.31-0.03-1.94
			c0-1.25,0.04-2.51,0.13-3.76l0.01-0.18l0-0.01l0.01-0.16c0.24-3.28,0.77-6.55,1.57-9.72c2.28-8.98,6.81-17.3,13.12-24.16
			l-0.82,0.2c-1.9,0.47-3.68,1.26-5.29,2.35c-0.57,0.38-1.13,0.82-1.68,1.3c-2.06,2.96-3.87,6.15-5.37,9.46l-0.08,0.37l-0.25,0.49
			c-0.19,0.38-0.37,0.77-0.54,1.15c-1.02,2.48-1.87,5.04-2.54,7.62C0.64,54.99,0,60.05,0,65.16c0,3.85,0.37,7.69,1.09,11.43
			L3.15,69.45z"/>
		<path class="st0" d="M71.67,10.28L71.4,10c-1.36-1.41-2.93-2.56-4.68-3.41c-0.92-0.45-1.88-0.81-2.86-1.08
			c-1.36-0.09-2.73-0.14-4.08-0.14c-2.33,0-4.68,0.14-6.98,0.4c-3.01,0.35-6.02,0.93-8.93,1.74c-2.5,0.69-4.97,1.55-7.36,2.56
			c-5.81,2.46-11.16,5.8-15.92,9.95l7.28-1.81c0.38-0.09,0.77-0.2,1.15-0.32c0.33-0.1,0.68-0.23,1.09-0.38
			c1.58-0.99,3.23-1.91,4.9-2.73c3.06-1.51,6.27-2.74,9.54-3.67c4.94-1.39,10.06-2.1,15.23-2.1C63.79,9.01,67.78,9.44,71.67,10.28z"
			/>
	</g>
	<g>
		<path class="st0" d="M73.4,75.91c-0.15-0.15-0.39-0.15-0.54,0l-6.74,6.8c-0.15,0.15-0.15,0.38,0,0.53l2.33,2.34
			c0.15,0.15,0.39,0.15,0.53,0l6.79-6.77c0.15-0.15,0.15-0.39,0-0.53L73.4,75.91z"/>
		<path class="st0" d="M62.68,97.44c-0.52-0.83-0.79-1.79-0.79-2.76V42.54l22.17,22.17l-6.21,6.21c-0.15,0.15-0.15,0.39,0,0.53
			l2.38,2.38c0.15,0.15,0.39,0.15,0.53,0l8.85-8.85c0.08-0.08,0.11-0.18,0.11-0.27c0-0.1-0.03-0.2-0.11-0.27L62.7,37.53l3.31-3.31
			c0.42-0.42,0.42-1.11,0-1.53l-1.38-1.38c-0.42-0.42-1.11-0.42-1.53,0l-3.31,3.31l-3.31-3.31c-0.42-0.42-1.11-0.42-1.53,0
			l-1.38,1.38c-0.42,0.42-0.42,1.11,0,1.53l3.31,3.31L29.97,64.44c-0.08,0.08-0.11,0.17-0.11,0.27c0,0.1,0.03,0.2,0.11,0.27
			l8.85,8.85c0.15,0.15,0.39,0.15,0.53,0l2.38-2.38c0.15-0.15,0.15-0.39,0-0.53l-6.21-6.21l22.17-22.17v52.14
			c0,0.98-0.28,1.93-0.79,2.76l-2.85,4.75c-0.43,0.72-0.21,1.65,0.5,2.1l0.83,0.52c0.73,0.46,1.69,0.23,2.14-0.51l2.28-3.75
			l2.28,3.75c0.45,0.74,1.41,0.96,2.14,0.51l0.83-0.52c0.71-0.45,0.93-1.38,0.5-2.1L62.68,97.44z"/>
		<path class="st0" d="M77.83,51.11l2.38,2.38c0.15,0.15,0.39,0.15,0.53,0l6.61-6.61c0.15-0.15,0.15-0.39,0-0.53l-2.38-2.38
			c-0.15-0.15-0.39-0.15-0.53,0l-6.61,6.61C77.68,50.72,77.68,50.96,77.83,51.11z"/>
		<path class="st0" d="M74.41,47.69c0.15,0.15,0.39,0.15,0.53,0l6.61-6.61c0.15-0.15,0.15-0.39,0-0.53l-2.38-2.38
			c-0.15-0.15-0.39-0.15-0.53,0l-6.61,6.61c-0.15,0.15-0.15,0.39,0,0.53L74.41,47.69z"/>
		<path class="st0" d="M94.18,89.37L69.52,64.71l6.24-6.24c0.15-0.15,0.15-0.39,0-0.53l-2.38-2.38c-0.15-0.15-0.39-0.15-0.53,0
			l-8.88,8.88c-0.08,0.08-0.11,0.17-0.11,0.27c0,0.1,0.03,0.2,0.11,0.27l27.3,27.3c0.15,0.15,0.39,0.15,0.53,0l2.38-2.38
			C94.33,89.76,94.33,89.52,94.18,89.37z"/>
		<path class="st0" d="M46.71,75.91c-0.15-0.15-0.39-0.15-0.54,0l-2.38,2.38c-0.15,0.15-0.15,0.39,0,0.53l6.79,6.77
			c0.15,0.15,0.39,0.15,0.53,0l2.33-2.34c0.15-0.15,0.15-0.38,0-0.53L46.71,75.91z"/>
		<path class="st0" d="M38.83,53.49c0.15,0.15,0.39,0.15,0.53,0l2.38-2.38c0.15-0.15,0.15-0.39,0-0.53l-6.61-6.61
			c-0.15-0.15-0.39-0.15-0.53,0l-2.38,2.38c-0.15,0.15-0.15,0.39,0,0.53L38.83,53.49z"/>
		<path class="st0" d="M44.63,47.69c0.15,0.15,0.39,0.15,0.53,0l2.38-2.38c0.15-0.15,0.15-0.39,0-0.53l-6.61-6.61
			c-0.15-0.15-0.39-0.15-0.53,0l-2.38,2.38c-0.15,0.15-0.15,0.39,0,0.53L44.63,47.69z"/>
		<path class="st0" d="M55.71,64.71c0-0.1-0.03-0.2-0.11-0.27l-8.88-8.88c-0.15-0.15-0.39-0.15-0.53,0l-2.38,2.38
			c-0.15,0.15-0.15,0.39,0,0.53l6.24,6.24L25.39,89.37c-0.15,0.15-0.15,0.39,0,0.53l2.38,2.38c0.15,0.15,0.39,0.15,0.53,0l27.3-27.3
			C55.68,64.91,55.71,64.81,55.71,64.71z"/>
	</g>
</g>
</svg>
